<svg xmlns="http://www.w3.org/2000/svg" viewBox="0 0 122 22" width="122" height="22">
	<style>
		tspan { white-space:pre }
		.shp0 { fill: #231f20 } 
	</style>
	<path id="Layer" fill-rule="evenodd" className="shp0" d="M120.45 2.24C120.87 2.06 121.35 2.15 121.67 2.47C122 2.79 122.1 3.27 121.93 3.69C121.75 4.11 121.34 4.39 120.89 4.39C120.74 4.39 120.6 4.37 120.46 4.31C120.32 4.26 120.2 4.18 120.1 4.08C119.99 3.98 119.91 3.85 119.85 3.72C119.8 3.58 119.77 3.44 119.77 3.29C119.76 2.84 120.03 2.42 120.45 2.24ZM121.75 3.66C121.9 3.31 121.83 2.91 121.57 2.65C121.31 2.38 120.91 2.3 120.56 2.44C120.22 2.58 119.99 2.92 119.99 3.29C119.99 3.41 120.01 3.53 120.05 3.64C120.09 3.75 120.16 3.86 120.24 3.94C120.33 4.03 120.43 4.1 120.54 4.14C120.65 4.19 120.77 4.21 120.89 4.21C121.26 4.22 121.61 4 121.75 3.66ZM120.65 3.92L120.46 3.92L120.46 2.65L120.94 2.65C121.25 2.65 121.39 2.76 121.39 3.01C121.39 3.05 121.39 3.1 121.37 3.14C121.36 3.18 121.33 3.22 121.3 3.26C121.27 3.29 121.23 3.32 121.19 3.33C121.15 3.35 121.11 3.36 121.06 3.36L121.43 3.92L121.21 3.92L120.88 3.37L120.65 3.37L120.65 3.92ZM120.88 3.21C121.05 3.21 121.19 3.21 121.19 3C121.19 2.79 121.05 2.82 120.92 2.82L120.65 2.82L120.65 3.21L120.88 3.21Z" />
	<path id="Layer" fill-rule="evenodd" className="shp0" d="M84.5 3C84.49 2.55 84.76 2.13 85.18 1.95C85.6 1.77 86.08 1.86 86.4 2.18C86.73 2.5 86.83 2.98 86.66 3.4C86.48 3.82 86.07 4.1 85.62 4.1C85.47 4.1 85.33 4.08 85.19 4.02C85.06 3.97 84.93 3.89 84.83 3.78C84.72 3.68 84.64 3.56 84.59 3.43C84.53 3.29 84.5 3.15 84.5 3ZM85.62 3.92C85.86 3.92 86.1 3.82 86.27 3.65C86.44 3.48 86.54 3.24 86.54 3C86.54 2.76 86.44 2.52 86.27 2.35C86.1 2.18 85.86 2.08 85.62 2.08C85.38 2.08 85.14 2.18 84.97 2.35C84.8 2.52 84.7 2.76 84.7 3C84.7 3.24 84.8 3.48 84.97 3.65C85.14 3.82 85.38 3.92 85.62 3.92ZM85.39 3.64L85.2 3.64L85.2 2.37L85.68 2.37C85.98 2.37 86.13 2.49 86.13 2.74C86.13 2.78 86.12 2.83 86.11 2.87C86.09 2.91 86.07 2.95 86.04 2.98C86.01 3.02 85.97 3.04 85.93 3.06C85.89 3.08 85.84 3.09 85.8 3.09L86.16 3.65L86 3.65L85.66 3.1L85.44 3.1L85.39 3.64ZM85.62 2.92C85.78 2.92 85.93 2.92 85.93 2.71C85.93 2.5 85.79 2.53 85.65 2.53L85.39 2.53L85.39 2.92L85.62 2.92Z" />
	<path id="Layer" className="shp0" d="M12.75 1.16C13.19 2.85 13.57 4.55 13.89 6.29C13.9 6.42 13.89 6.56 13.85 6.69C13.81 6.81 13.75 6.93 13.67 7.04C13.59 7.15 13.49 7.23 13.37 7.3C13.26 7.37 13.13 7.42 13 7.44C12.91 7.44 12.83 7.44 12.74 7.43C12.66 7.41 12.58 7.39 12.5 7.35C12.42 7.32 12.34 7.28 12.27 7.23C12.2 7.18 12.14 7.12 12.08 7.06C11.35 5.97 11.08 4.67 10.22 3.69C10.17 3.64 10.11 3.6 10.04 3.56C9.98 3.53 9.91 3.51 9.83 3.49C9.76 3.48 9.69 3.47 9.61 3.48C9.54 3.49 9.47 3.5 9.4 3.53L9.19 3.74L9.34 19.45C9.36 19.57 9.41 19.69 9.47 19.8C9.52 19.91 9.6 20.01 9.69 20.1C9.78 20.19 9.88 20.27 9.99 20.32C10.1 20.38 10.22 20.43 10.34 20.45C10.44 20.42 10.53 20.37 10.61 20.31C10.69 20.26 10.77 20.19 10.84 20.11C10.9 20.03 10.96 19.95 11 19.86C11.05 19.77 11.08 19.67 11.1 19.57L11.15 18.69L11 11C10.86 10.43 10.13 10.42 10 9.89C10.03 9.82 10.07 9.75 10.12 9.68C10.17 9.62 10.22 9.56 10.28 9.5C10.34 9.45 10.4 9.4 10.47 9.36C10.54 9.32 10.61 9.29 10.69 9.26C11.69 8.82 12.74 8.54 13.69 8.03C13.77 8.01 13.85 8.01 13.92 8C14 8 14.08 8 14.16 8.01C14.24 8.01 14.32 8.03 14.39 8.05C14.47 8.07 14.55 8.09 14.62 8.12L14.79 8.36L14.9 19.36C14.98 19.73 15.09 20.24 15.56 20.36C15.6 20.4 15.62 20.45 15.64 20.51C15.66 20.56 15.67 20.62 15.67 20.67C15.67 20.73 15.66 20.79 15.64 20.84C15.62 20.9 15.6 20.95 15.56 20.99C15.5 21.06 15.43 21.12 15.35 21.18C15.28 21.23 15.19 21.28 15.11 21.31C15.02 21.35 14.93 21.37 14.84 21.38C14.75 21.4 14.65 21.4 14.56 21.39L11 21.39C10.93 21.39 10.86 21.38 10.79 21.36C10.73 21.34 10.66 21.32 10.6 21.29C10.53 21.26 10.47 21.22 10.42 21.18C10.36 21.13 10.31 21.08 10.27 21.03C9.48 21.64 8.13 21.39 7.21 21.45C6.14 21.32 4.81 21.74 3.86 21.1C3.7 20.97 3.74 20.73 3.75 20.59C3.93 20.23 4.46 20.36 4.56 19.92L4.72 19.43L4.67 7.49L4.6 3.75C4.57 3.71 4.53 3.67 4.49 3.64C4.45 3.6 4.41 3.58 4.36 3.56C4.31 3.54 4.26 3.52 4.21 3.51C4.15 3.51 4.1 3.5 4.05 3.51C3.65 3.51 3.4 3.96 3.19 4.26C2.72 5.1 2.4 6.03 1.98 6.89C1.94 6.96 1.9 7.03 1.86 7.09C1.81 7.15 1.76 7.21 1.7 7.26C1.64 7.32 1.58 7.36 1.51 7.4C1.44 7.45 1.37 7.48 1.3 7.51C1.2 7.54 1.1 7.55 1 7.55C0.89 7.55 0.79 7.54 0.69 7.51C0.6 7.48 0.5 7.43 0.42 7.37C0.33 7.32 0.26 7.25 0.19 7.17C-0.3 6.56 0.14 5.75 0.19 5.08L1.02 1.29C1.12 1.1 1.23 0.84 1.45 0.78C2.12 0.54 2.26 1.47 2.89 1.29L11.07 1.22C11.57 1.22 11.86 0.42 12.44 0.78L12.75 1.16Z" />
	<path id="Layer" className="shp0" d="M62.87 1.37L63.04 1.62L63.1 4.21L63.22 19.29C63.23 19.4 63.25 19.5 63.29 19.6C63.32 19.7 63.37 19.79 63.43 19.88C63.49 19.97 63.56 20.05 63.64 20.12C63.72 20.18 63.81 20.24 63.9 20.29C63.94 20.34 63.97 20.39 63.99 20.45C64.02 20.51 64.03 20.57 64.04 20.63C64.05 20.69 64.05 20.76 64.05 20.82C64.04 20.88 64.02 20.94 64 21C63.81 21.51 63.25 21.58 62.76 21.58L59.33 21.58C59.26 21.57 59.18 21.56 59.11 21.54C59.04 21.52 58.97 21.49 58.91 21.45C58.84 21.41 58.78 21.37 58.73 21.32C58.67 21.27 58.62 21.21 58.58 21.15C58.55 21.1 58.53 21.04 58.51 20.98C58.5 20.92 58.49 20.86 58.49 20.79C58.49 20.73 58.5 20.67 58.51 20.61C58.53 20.55 58.55 20.49 58.58 20.44C58.93 20.21 59.32 19.99 59.35 19.51L59.35 12.51C59.35 11.93 59.35 11.11 59.35 10.51C59.09 11.14 59.35 12.04 58.68 12.41C58.61 12.43 58.53 12.44 58.46 12.45C58.38 12.45 58.31 12.45 58.23 12.44C58.16 12.43 58.09 12.41 58.02 12.38C57.95 12.35 57.88 12.31 57.82 12.27C57.75 12.19 57.68 12.11 57.62 12.02C57.56 11.94 57.51 11.85 57.46 11.75C57.42 11.66 57.38 11.56 57.34 11.46C57.31 11.36 57.28 11.26 57.26 11.16C57.07 10.97 56.81 11.16 56.61 11.16C53.94 13.05 55.1 16.72 54.87 19.58C54.87 20.16 55.59 19.95 55.66 20.48C55.66 20.54 55.65 20.59 55.64 20.65C55.63 20.71 55.62 20.76 55.59 20.82C55.57 20.87 55.55 20.92 55.52 20.97C55.49 21.02 55.46 21.07 55.42 21.11C55.35 21.16 55.27 21.2 55.19 21.24C55.11 21.28 55.03 21.31 54.94 21.33C54.86 21.35 54.77 21.37 54.68 21.37C54.6 21.38 54.51 21.38 54.42 21.37L50.65 21.37C50.59 21.36 50.53 21.33 50.47 21.3C50.42 21.28 50.36 21.24 50.32 21.2C50.27 21.16 50.23 21.11 50.19 21.06C50.15 21.01 50.12 20.95 50.1 20.89C50.08 20.84 50.07 20.79 50.06 20.74C50.05 20.69 50.05 20.64 50.06 20.59C50.06 20.54 50.08 20.49 50.1 20.45C50.12 20.4 50.15 20.36 50.18 20.32C50.4 20.09 50.81 20.14 50.91 19.77L50.91 18.91L50.79 11C50.79 10.34 49.79 10.39 49.79 9.67L50.27 9.25C51.35 8.77 52.5 8.42 53.57 7.93C53.97 7.88 54.37 7.88 54.57 8.25C54.68 8.83 54.52 9.51 54.69 10.14C54.69 10.21 54.84 10.14 54.89 10.14C55.56 9.14 56.42 7.93 57.75 8.02C58.26 8.02 58.84 8.09 59.12 8.56L59.19 8.4L59.19 5.4L59.19 5.4C59.2 5.32 59.2 5.23 59.2 5.15C59.2 5.06 59.2 4.98 59.19 4.9C59.19 4.81 59.18 4.73 59.17 4.65C59.15 4.56 59.14 4.48 59.12 4.4C59.12 3.75 58.12 3.72 58.44 3.02C59.38 1.91 60.96 2.02 62.07 1.16C62.14 1.15 62.21 1.14 62.28 1.15C62.35 1.15 62.42 1.16 62.49 1.18C62.56 1.2 62.63 1.22 62.69 1.25C62.76 1.29 62.81 1.33 62.87 1.37L62.87 1.37Z" />
	<path id="Layer" fill-rule="evenodd" className="shp0" d="M110.71 3.34L111.29 3.21C111.29 3.21 110.41 1.21 110.04 0.21C110.11 0.2 110.19 0.2 110.26 0.2C110.34 0.2 110.41 0.2 110.49 0.21C110.56 0.22 110.64 0.23 110.71 0.24C110.78 0.25 110.86 0.26 110.93 0.28C111.37 1.02 112.16 2.49 112.16 2.49C112.16 2.49 113.53 1.72 114.23 1.35C114.29 1.36 114.34 1.37 114.39 1.39C114.45 1.41 114.5 1.44 114.55 1.47C114.6 1.49 114.64 1.53 114.69 1.56C114.73 1.6 114.77 1.64 114.81 1.68L112.71 3.55L113.33 5.29C113.33 5.29 114.81 3.19 115.55 2.19C115.61 2.21 115.68 2.23 115.74 2.26C115.8 2.29 115.85 2.32 115.91 2.36C115.96 2.4 116.01 2.44 116.06 2.49C116.1 2.54 116.14 2.59 116.18 2.65C115.89 3.19 115.43 3.65 115.18 4.23C116.08 4.3 116.97 4.23 117.85 4.33C117.91 4.39 117.97 4.46 118.03 4.53C118.09 4.6 118.14 4.68 118.19 4.75C118.24 4.83 118.29 4.9 118.33 4.98C118.38 5.06 118.41 5.15 118.45 5.23L116.22 5.4L115.15 7.24L116.6 6.92C116.6 6.92 117.72 6.46 118.9 6C118.95 6.07 119 6.14 119.04 6.21C119.08 6.28 119.12 6.36 119.16 6.43C119.19 6.51 119.22 6.59 119.25 6.67C119.28 6.75 119.3 6.83 119.32 6.91L116.92 7.91L114.78 8.37C114.71 8.46 114.64 8.55 114.58 8.64C114.51 8.73 114.45 8.82 114.39 8.91C114.32 9.01 114.26 9.1 114.21 9.2C114.15 9.29 114.09 9.39 114.04 9.49C115.95 9.14 117.81 8.49 119.74 8.14C119.95 8.86 120.08 9.59 120.13 10.34C120.19 11.08 120.16 11.83 120.06 12.57C119.96 13.31 119.78 14.03 119.52 14.73C119.27 15.43 118.94 16.11 118.55 16.74C113.34 18.06 107.81 16.39 102.42 17.11L100.85 17.3C100.59 16.96 100.34 16.6 100.12 16.23C99.91 15.85 99.71 15.47 99.54 15.07C99.38 14.67 99.23 14.26 99.12 13.85C99 13.43 98.91 13.01 98.85 12.58C98.78 12.11 98.75 11.64 98.74 11.17C98.73 10.69 98.75 10.22 98.81 9.75C98.86 9.28 98.94 8.81 99.06 8.35C99.17 7.89 99.31 7.44 99.48 7C99.64 7 102.01 6.76 102.01 6.76L100.61 5C100.61 4.71 100.93 4.48 101.12 4.23C101.88 5.03 103.32 6.66 103.32 6.66L104.12 6.58L101.61 3.72C101.68 3.62 101.75 3.53 101.83 3.44C101.9 3.35 101.99 3.26 102.07 3.18C102.15 3.1 102.24 3.01 102.33 2.94C102.42 2.86 102.51 2.79 102.61 2.72L104.73 3.11C104.73 3.11 104.73 1.97 104.73 1.33C104.84 1.27 104.95 1.21 105.06 1.16C105.18 1.1 105.29 1.05 105.41 1.01C105.53 0.96 105.65 0.92 105.77 0.89C105.89 0.85 106.01 0.82 106.13 0.79C106.56 1.54 106.87 2.35 107.33 3.11C107.87 2.23 108.33 1.25 108.84 0.3C108.86 0.29 108.88 0.28 108.89 0.27C108.91 0.27 108.93 0.27 108.95 0.27C108.98 0.27 109 0.27 109.01 0.27C109.03 0.28 109.05 0.29 109.07 0.3L110.71 3.34ZM109.13 2.34L108 4.46L108.67 6.66L109.67 5.96L109.94 4.13C109.65 3.51 109.41 2.88 109.13 2.32L109.13 2.34ZM105.84 3.53L106.37 3.66C106.34 3.55 106.3 3.45 106.26 3.35C106.22 3.24 106.18 3.14 106.14 3.04C106.09 2.93 106.05 2.83 106 2.73C105.95 2.63 105.89 2.54 105.84 2.44L105.84 3.53ZM103.09 3.74L103.09 3.81C103.65 4.38 104.77 5.63 104.77 5.63L104.77 4.2L103.09 3.74ZM111.64 4.24L111.15 4.57L111.26 4.94L111.71 4.52L111.64 4.24ZM105.9 4.71L105.97 6.71L106.72 4.99L105.9 4.71ZM115.07 5.54L114.36 5.62L113.24 7.39L113.96 7.39L115.07 5.54ZM110.69 6.83L110.78 8.83L112.3 6.88C112.32 6.85 112.35 6.82 112.37 6.79C112.39 6.75 112.4 6.72 112.42 6.69C112.44 6.65 112.45 6.62 112.46 6.58C112.47 6.54 112.48 6.51 112.49 6.47L112.2 5.55L110.69 6.83ZM107.39 6.57L106.91 7.57L107.83 8.57C107.7 7.85 107.56 7.2 107.39 6.55L107.39 6.57ZM109.53 7.43L108.94 7.72L108.94 8.53L109.42 8.69L109.53 7.43ZM103.43 7.53L102.61 8.8L104.28 9.45L105.67 8.24L105.14 7.68L103.43 7.53ZM100 7.79L101.45 8.46L101.91 7.7L100 7.79ZM112.48 8.73L111.71 10L112.58 9.92L113.37 8.63L112.48 8.73ZM106.58 8.99L104 11.13L102.73 11.18C102.79 11.11 102.85 11.04 102.91 10.97C102.97 10.9 103.03 10.83 103.09 10.75C103.15 10.68 103.2 10.6 103.26 10.53C103.31 10.45 103.37 10.38 103.42 10.3C103.3 10.24 103.19 10.19 103.07 10.14C102.95 10.09 102.83 10.04 102.71 9.99C102.59 9.94 102.47 9.89 102.35 9.85C102.23 9.81 102.1 9.77 101.98 9.73L101 11C100.93 11 100.86 11 100.78 11.01C100.71 11.01 100.64 11.02 100.57 11.03C100.49 11.04 100.42 11.05 100.35 11.06C100.28 11.07 100.21 11.09 100.14 11.11C100.14 11.36 100.14 11.61 100.15 11.87C100.16 12.12 100.18 12.37 100.21 12.62C100.24 12.87 100.28 13.12 100.33 13.37C100.37 13.62 100.43 13.87 100.49 14.11C100.58 14.35 100.65 14.77 101.02 14.74C101.66 14.76 102.29 14.79 102.93 14.83C103.56 14.87 104.19 14.92 104.83 14.97C105.46 15.03 106.09 15.09 106.73 15.16C107.36 15.23 107.99 15.31 108.62 15.4L108.62 11.41C108.57 11.33 108.52 11.25 108.47 11.17C108.42 11.08 108.37 11.01 108.32 10.93C108.27 10.85 108.21 10.77 108.15 10.7C108.1 10.62 108.04 10.54 107.98 10.47L106.79 11.17L104.61 11.17C104.61 11.17 106.41 10.17 107.23 9.59C107 9.38 106.86 9.11 106.58 9L106.58 8.99ZM100.28 9.05C100.25 9.15 100.22 9.25 100.2 9.35C100.18 9.45 100.16 9.55 100.15 9.65C100.14 9.76 100.14 9.86 100.14 9.96C100.15 10.07 100.16 10.17 100.17 10.27C100.38 9.94 100.89 9.27 100.89 9.27L100.28 9.05ZM118.82 9.57L117.89 9.84C118.13 10.33 118.69 11.31 118.69 11.31L117.57 11.31L116.57 10.11L114.96 10.47L115.41 11.31L114.6 11.4L113.97 10.59C113.97 10.59 111.67 11.25 110.55 11.59L110.48 11.7C110.48 12.96 110.58 14.21 110.72 15.42L110.83 15.68C111.37 15.77 111.92 15.85 112.46 15.92C113.01 15.99 113.55 16.05 114.1 16.11C114.65 16.16 115.19 16.21 115.74 16.24C116.29 16.28 116.84 16.3 117.39 16.32L117.61 16.23C117.75 16.01 117.88 15.78 118.01 15.55C118.13 15.32 118.25 15.09 118.36 14.85C118.47 14.61 118.57 14.36 118.66 14.12C118.75 13.87 118.83 13.62 118.9 13.37C119 13.06 119.08 12.74 119.12 12.42C119.17 12.1 119.19 11.78 119.19 11.45C119.18 11.13 119.14 10.81 119.08 10.49C119.02 10.17 118.93 9.85 118.82 9.55L118.82 9.57Z" />
	<path id="Layer" fill-rule="evenodd" className="shp0" d="M36.08 1.28L36.2 1.6L36.2 8.34C36.47 8.83 36.77 8.06 37.1 8.02C37.35 7.95 37.61 7.91 37.87 7.91C38.13 7.91 38.39 7.95 38.64 8.02C38.89 8.09 39.12 8.2 39.34 8.34C39.56 8.48 39.76 8.65 39.93 8.85C41.3 10.31 41.51 12.17 41.84 14.06C42.05 11.88 42.49 9.58 44.48 8.39C44.75 8.24 45.04 8.13 45.34 8.05C45.64 7.98 45.95 7.94 46.26 7.94C46.57 7.94 46.88 7.98 47.18 8.05C47.48 8.13 47.77 8.24 48.04 8.39C48.36 8.63 48.65 8.9 48.91 9.21C49.17 9.51 49.4 9.85 49.59 10.2C49.77 10.55 49.92 10.93 50.02 11.32C50.13 11.7 50.18 12.1 50.2 12.5C50.2 12.61 50.21 12.72 50.2 12.82C50.2 12.93 50.19 13.04 50.17 13.15C50.16 13.25 50.14 13.36 50.12 13.47C50.1 13.57 50.07 13.68 50.04 13.78C48.58 14.48 47.04 14.99 45.53 15.62C45.18 15.88 45.48 16.32 45.53 16.62C45.77 17.24 46.09 18.1 46.86 18.22C47.28 18.36 47.86 18.62 48.3 18.22C48.74 17.82 48.41 16.56 49.43 16.87C49.53 16.89 49.63 16.92 49.73 16.95C49.83 16.99 49.92 17.04 50.01 17.1C50.09 17.16 50.17 17.23 50.24 17.31C50.32 17.38 50.38 17.47 50.43 17.56C50.47 17.84 50.48 18.12 50.46 18.4C50.45 18.68 50.4 18.95 50.33 19.22C50.26 19.49 50.16 19.76 50.04 20.01C49.92 20.26 49.77 20.5 49.6 20.72C49.33 20.92 49.04 21.09 48.74 21.24C48.43 21.38 48.12 21.49 47.79 21.56C47.46 21.64 47.13 21.68 46.79 21.68C46.45 21.69 46.12 21.66 45.79 21.59C43.28 21.07 42.35 18.31 42 16C41.79 18.09 41.67 20.62 39.37 21.46C39.03 21.57 38.67 21.63 38.32 21.64C37.96 21.66 37.6 21.63 37.25 21.55C36.9 21.47 36.56 21.34 36.24 21.18C35.93 21.01 35.63 20.8 35.37 20.56C35.25 20.39 35.22 20.11 34.97 20.02C34.39 20.02 34.39 20.69 34.09 21.02C33.79 21.35 33.34 21.6 32.86 21.46C32.82 21.43 32.78 21.4 32.75 21.37C32.71 21.34 32.68 21.31 32.65 21.27C32.61 21.24 32.58 21.2 32.56 21.16C32.53 21.12 32.5 21.08 32.48 21.04C31.99 21.58 31.27 21.4 30.6 21.44L27.95 21.44C27.87 21.43 27.8 21.41 27.72 21.38C27.65 21.35 27.58 21.31 27.52 21.26C27.46 21.21 27.41 21.16 27.36 21.09C27.32 21.03 27.28 20.95 27.26 20.88C27.21 20.57 27.54 20.43 27.75 20.32C27.82 20.22 27.88 20.11 27.93 19.99C27.98 19.88 28.02 19.76 28.05 19.64C28.08 19.52 28.1 19.4 28.11 19.27C28.12 19.15 28.12 19.02 28.11 18.9C28.09 18.32 28.07 17.75 28.03 17.17C28 16.59 27.95 16.02 27.9 15.44C27.85 14.87 27.79 14.29 27.72 13.72C27.65 13.14 27.57 12.57 27.48 12C27.46 11.88 27.43 11.76 27.39 11.64C27.35 11.53 27.3 11.41 27.25 11.31C27.19 11.2 27.13 11.09 27.05 11C26.98 10.9 26.9 10.81 26.81 10.72C26.51 10.61 26.3 10.84 26.11 10.98L25.88 11.35L25.88 19.48C25.89 19.59 25.91 19.69 25.95 19.79C25.98 19.89 26.03 19.99 26.09 20.07C26.16 20.16 26.23 20.24 26.31 20.31C26.39 20.38 26.48 20.44 26.58 20.48C26.6 20.52 26.62 20.56 26.63 20.6C26.64 20.65 26.64 20.69 26.64 20.73C26.64 20.78 26.64 20.82 26.63 20.87C26.62 20.91 26.6 20.95 26.58 20.99C26.09 21.71 25.07 21.36 24.39 21.45C23.53 21.32 22.16 21.8 21.58 20.97C21.56 20.92 21.55 20.86 21.55 20.81C21.55 20.75 21.56 20.7 21.58 20.65C21.59 20.6 21.62 20.55 21.66 20.51C21.7 20.47 21.74 20.43 21.79 20.41C22.21 20.31 22.32 19.83 22.44 19.5L22.44 11C22.4 10.93 22.35 10.86 22.3 10.8C22.24 10.74 22.18 10.69 22.11 10.65C22.04 10.61 21.97 10.57 21.89 10.55C21.81 10.53 21.73 10.51 21.65 10.51C21.56 10.53 21.47 10.56 21.39 10.59C21.31 10.63 21.23 10.68 21.16 10.73C21.09 10.78 21.02 10.85 20.96 10.92C20.9 10.98 20.85 11.06 20.81 11.14C20.42 11.84 20.65 12.63 20.59 13.46L20.67 19.57C20.67 20.09 21.17 20.25 21.4 20.57C21.41 20.64 21.41 20.72 21.4 20.79C21.38 20.86 21.36 20.93 21.33 21C21.29 21.07 21.25 21.13 21.2 21.18C21.14 21.23 21.09 21.28 21.02 21.31C20.67 21.35 20.33 21.38 19.98 21.4C19.63 21.42 19.28 21.44 18.93 21.45C18.58 21.46 18.23 21.46 17.89 21.46C17.54 21.46 17.19 21.45 16.84 21.43C16.5 21.36 16.12 21.34 15.92 20.99C15.85 20.85 15.8 20.6 15.92 20.48C16 20.45 16.08 20.41 16.16 20.35C16.23 20.3 16.3 20.24 16.36 20.18C16.42 20.11 16.47 20.04 16.52 19.96C16.56 19.88 16.6 19.8 16.62 19.71L16.71 19.25L16.62 11.09C16.53 10.44 15.53 10.51 15.71 9.81C16.18 9.23 16.96 9.12 17.61 8.81C17.76 8.76 17.91 8.71 18.05 8.66C18.2 8.6 18.35 8.54 18.49 8.48C18.64 8.42 18.78 8.36 18.92 8.29C19.06 8.22 19.2 8.15 19.34 8.08C19.76 8.08 20.29 7.99 20.48 8.43C20.48 8.74 20.36 9.18 20.7 9.34C21.19 9.34 21.27 8.71 21.7 8.46C21.92 8.32 22.16 8.21 22.41 8.13C22.66 8.05 22.92 8.01 23.18 8C23.45 7.99 23.71 8.01 23.96 8.07C24.22 8.13 24.47 8.22 24.7 8.34C25.12 8.59 25.28 9.01 25.6 9.34C26.16 9.34 26.23 8.64 26.6 8.34C26.81 8.23 27.04 8.15 27.28 8.1C27.51 8.04 27.75 8.02 28 8.03C28.24 8.04 28.48 8.09 28.71 8.16C28.94 8.23 29.16 8.33 29.36 8.46C30.69 9.55 30.69 11.3 31.08 12.83C31.17 13.35 31.25 13.88 31.32 14.4C31.39 14.92 31.44 15.45 31.49 15.98C31.54 16.51 31.57 17.03 31.6 17.56C31.62 18.09 31.64 18.62 31.64 19.15C31.71 19.57 31.69 20.26 32.24 20.4L32.36 20.52L32.45 20.34L32.29 4.7C32.27 4.56 32.24 4.42 32.2 4.28C32.16 4.15 32.1 4.02 32.04 3.89C31.97 3.77 31.89 3.65 31.8 3.54C31.71 3.43 31.61 3.33 31.5 3.24C31.49 3.2 31.48 3.15 31.48 3.1C31.47 3.06 31.48 3.01 31.49 2.96C31.5 2.92 31.52 2.87 31.54 2.83C31.56 2.79 31.59 2.75 31.62 2.72C32.48 1.89 33.62 1.84 34.62 1.3C34.71 1.19 34.82 1.1 34.94 1.04C35.07 0.98 35.21 0.94 35.35 0.94C35.49 0.94 35.62 0.97 35.75 1.03C35.88 1.09 35.99 1.17 36.08 1.28ZM44.84 10.28C44.78 10.57 44.73 10.87 44.7 11.17C44.67 11.46 44.65 11.76 44.65 12.06C44.65 12.36 44.67 12.66 44.7 12.95C44.73 13.25 44.78 13.55 44.84 13.84C44.93 14 44.98 14.28 45.23 14.26C45.7 13.98 46.23 13.88 46.67 13.4C47.46 12.16 46.53 10.81 45.93 9.72C45.52 9.43 45 9.85 44.84 10.29L44.84 10.28ZM37.48 9.86C37.42 9.88 37.36 9.91 37.31 9.95C37.26 9.98 37.21 10.02 37.16 10.06C37.11 10.11 37.07 10.15 37.04 10.21C37 10.26 36.97 10.31 36.94 10.37C36.75 10.81 36.6 11.27 36.47 11.74C36.35 12.2 36.26 12.68 36.2 13.16C36.14 13.64 36.12 14.12 36.12 14.6C36.13 15.08 36.17 15.56 36.25 16.04C36.27 16.25 36.3 16.47 36.34 16.68C36.39 16.89 36.45 17.09 36.53 17.3C36.6 17.5 36.69 17.69 36.8 17.88C36.9 18.07 37.02 18.25 37.15 18.42C37.34 18.55 37.59 18.37 37.76 18.25C39.22 16.02 38.76 12.68 37.97 10.25C37.83 10.15 37.76 9.82 37.48 9.87L37.48 9.86Z" />
	<path id="Layer" fill-rule="evenodd" className="shp0" d="M93.5 1.39L93.5 2.18L93.66 18.59C93.67 18.64 93.68 18.68 93.7 18.73C93.71 18.77 93.74 18.81 93.77 18.85C93.8 18.88 93.83 18.91 93.87 18.94C93.91 18.97 93.96 18.99 94 19C94.17 19.07 94.47 19.09 94.51 19.35C94.52 19.42 94.53 19.48 94.53 19.55C94.52 19.62 94.51 19.69 94.5 19.75C94.48 19.82 94.46 19.88 94.43 19.95C94.4 20.01 94.37 20.07 94.33 20.12C94.09 20.24 93.85 20.36 93.6 20.47C93.35 20.58 93.11 20.69 92.86 20.79C92.61 20.89 92.35 20.98 92.1 21.07C91.84 21.16 91.59 21.24 91.33 21.32C90.85 21.39 90.33 21.74 89.9 21.42C89.64 21.21 90.1 20.81 89.68 20.69C89.25 20.95 88.96 21.49 88.46 21.62C88.19 21.66 87.91 21.67 87.64 21.64C87.37 21.62 87.1 21.56 86.84 21.48C86.58 21.39 86.33 21.27 86.1 21.13C85.87 20.98 85.65 20.81 85.46 20.62C83.72 18.62 83.84 15.53 84.23 12.97C84.27 12.54 84.34 12.12 84.44 11.71C84.55 11.29 84.69 10.89 84.86 10.49C85.03 10.1 85.23 9.72 85.46 9.36C85.69 9 85.95 8.66 86.23 8.34C86.37 8.21 86.53 8.1 86.7 8.01C86.87 7.91 87.04 7.84 87.23 7.79C87.42 7.74 87.61 7.71 87.8 7.71C87.99 7.7 88.18 7.72 88.37 7.76C88.79 7.83 89.04 8.16 89.37 8.39C89.39 8.39 89.41 8.38 89.43 8.37C89.45 8.36 89.47 8.35 89.49 8.34C89.5 8.32 89.52 8.31 89.53 8.29C89.54 8.27 89.55 8.25 89.56 8.23L89.56 4.39C89.44 3.67 87.86 3.49 88.68 2.54C89 2.35 89.46 2.54 89.79 2.33C90.79 1.77 91.9 1.42 92.93 0.91C93 0.91 93.06 0.93 93.12 0.95C93.19 0.98 93.24 1.01 93.29 1.06C93.34 1.1 93.39 1.15 93.42 1.21C93.46 1.26 93.48 1.33 93.5 1.39ZM88.46 9.9C88.47 9.9 88.47 9.9 88.48 9.91C88.49 9.9 88.49 9.9 88.5 9.9L88.46 9.9ZM87.99 10.57C87.86 10.98 87.76 11.39 87.67 11.81C87.58 12.23 87.52 12.65 87.48 13.08C87.43 13.5 87.41 13.93 87.41 14.36C87.41 14.79 87.43 15.21 87.47 15.64C87.7 16.64 87.75 17.7 88.57 18.43C88.62 18.46 88.67 18.48 88.72 18.49C88.78 18.5 88.83 18.5 88.89 18.49C88.94 18.48 89 18.47 89.04 18.44C89.09 18.41 89.13 18.37 89.17 18.33C90.17 16.33 90.08 13.82 89.59 11.64C89.31 11.01 89.2 10.18 88.48 9.91C88.19 10.01 88.12 10.33 87.99 10.57Z" />
	<path id="Layer" fill-rule="evenodd" className="shp0" d="M82.56 9.96C82.64 10.13 82.72 10.31 82.79 10.49C82.86 10.67 82.92 10.86 82.97 11.04C83.02 11.23 83.06 11.42 83.09 11.61C83.2 12.24 83.3 12.86 83.4 13.49C83.49 14.12 83.58 14.75 83.65 15.38C83.73 16.01 83.79 16.64 83.85 17.27C83.91 17.9 83.96 18.54 84 19.17C84 19.25 84.01 19.33 84.02 19.41C84.03 19.48 84.05 19.56 84.07 19.64C84.09 19.71 84.12 19.79 84.15 19.86C84.18 19.93 84.22 20 84.26 20.07C84.48 20.24 84.79 20.28 84.79 20.59C84.79 20.66 84.78 20.72 84.76 20.79C84.74 20.85 84.71 20.92 84.68 20.97C84.64 21.03 84.59 21.08 84.54 21.12C84.49 21.17 84.43 21.2 84.37 21.23C84.04 21.27 83.71 21.29 83.37 21.32C83.04 21.34 82.71 21.35 82.37 21.36C82.04 21.37 81.7 21.37 81.37 21.37C81.04 21.36 80.7 21.35 80.37 21.33C80.29 21.32 80.22 21.3 80.15 21.28C80.08 21.25 80.01 21.21 79.95 21.17C79.89 21.12 79.83 21.07 79.78 21.01C79.73 20.95 79.69 20.89 79.66 20.82C79.64 20.77 79.63 20.71 79.63 20.65C79.63 20.6 79.64 20.54 79.66 20.49C79.69 20.43 79.72 20.38 79.75 20.34C79.79 20.3 79.84 20.27 79.89 20.24C80.42 20.03 80.38 19.44 80.49 18.98C80.48 18.35 80.45 17.72 80.39 17.09C80.33 16.46 80.25 15.84 80.15 15.21C80.05 14.59 79.92 13.97 79.77 13.36C79.62 12.75 79.45 12.14 79.26 11.54C79.23 11.46 79.2 11.39 79.16 11.31C79.12 11.24 79.08 11.17 79.03 11.11C78.98 11.04 78.92 10.98 78.86 10.93C78.8 10.87 78.73 10.82 78.66 10.78C78.61 10.76 78.55 10.75 78.5 10.76C78.44 10.76 78.39 10.77 78.34 10.79C78.29 10.81 78.24 10.84 78.2 10.88C78.16 10.92 78.12 10.96 78.1 11.01L78.03 11.33L78.14 19.51C78.14 20.07 78.7 20.17 78.89 20.59C79.08 21.01 78.66 21.12 78.45 21.24C78.11 21.28 77.77 21.31 77.43 21.34C77.09 21.36 76.75 21.38 76.41 21.39C76.07 21.39 75.72 21.39 75.38 21.38C75.04 21.37 74.7 21.36 74.36 21.33C74.28 21.32 74.21 21.3 74.14 21.27C74.07 21.24 74.01 21.2 73.95 21.15C73.89 21.11 73.83 21.05 73.79 20.99C73.74 20.93 73.71 20.86 73.68 20.79C73.64 20.83 73.6 20.86 73.56 20.9C73.51 20.93 73.47 20.97 73.43 21.01C73.39 21.05 73.35 21.08 73.32 21.12C73.28 21.16 73.24 21.2 73.2 21.24C73.08 21.32 72.96 21.39 72.83 21.45C72.7 21.51 72.56 21.56 72.42 21.59C72.28 21.62 72.14 21.65 72 21.65C71.86 21.66 71.71 21.65 71.57 21.63C71.42 21.58 71.27 21.52 71.12 21.46C70.97 21.39 70.83 21.32 70.69 21.23C70.56 21.15 70.42 21.05 70.3 20.95C70.17 20.85 70.05 20.75 69.94 20.63L69.62 20.63C69.39 20.88 69.12 21.1 68.83 21.27C68.54 21.45 68.22 21.58 67.89 21.66C67.56 21.74 67.22 21.77 66.88 21.75C66.54 21.74 66.2 21.67 65.88 21.55C65.59 21.46 65.32 21.34 65.07 21.17C64.82 21.01 64.59 20.82 64.39 20.59C64.19 20.37 64.03 20.12 63.89 19.85C63.76 19.58 63.67 19.29 63.62 19C63.34 17.45 63.45 15.7 64.75 14.7C65 14.46 65.27 14.23 65.55 14.03C65.83 13.82 66.13 13.63 66.43 13.46C66.74 13.29 67.06 13.14 67.38 13.02C67.71 12.89 68.04 12.78 68.38 12.7C68.44 12.55 68.49 12.39 68.52 12.23C68.55 12.07 68.57 11.9 68.58 11.74C68.58 11.58 68.57 11.41 68.55 11.25C68.52 11.09 68.48 10.93 68.43 10.77C68.26 10.4 68.13 10 67.71 9.77L66.52 9.66C66.49 9.66 66.46 9.67 66.43 9.68C66.39 9.69 66.37 9.7 66.34 9.72C66.31 9.74 66.29 9.76 66.27 9.79C66.25 9.81 66.23 9.84 66.22 9.87C66.34 10.19 66.77 10.22 66.85 10.59C66.89 10.73 66.92 10.87 66.92 11.01C66.93 11.16 66.92 11.3 66.9 11.44C66.87 11.58 66.82 11.72 66.76 11.85C66.7 11.98 66.63 12.11 66.54 12.22C66.38 12.33 66.2 12.42 66.02 12.48C65.83 12.54 65.63 12.58 65.44 12.59C65.24 12.6 65.05 12.58 64.85 12.53C64.66 12.48 64.48 12.41 64.31 12.31C64.19 12.21 64.08 12.09 63.98 11.96C63.89 11.83 63.81 11.68 63.75 11.53C63.69 11.39 63.65 11.23 63.63 11.07C63.61 10.91 63.6 10.75 63.62 10.59C63.65 10.34 63.71 10.09 63.8 9.86C63.9 9.63 64.03 9.41 64.19 9.22C64.35 9.03 64.54 8.86 64.75 8.72C64.96 8.58 65.19 8.47 65.43 8.4C65.75 8.31 66.08 8.24 66.41 8.18C66.75 8.13 67.08 8.09 67.42 8.07C67.75 8.05 68.09 8.05 68.43 8.07C68.76 8.09 69.1 8.12 69.43 8.18C69.65 8.21 69.87 8.27 70.08 8.35C70.29 8.43 70.49 8.54 70.67 8.68C70.85 8.81 71.01 8.96 71.15 9.14C71.3 9.31 71.42 9.51 71.51 9.71C71.62 10.04 71.71 10.37 71.8 10.71C71.88 11.05 71.96 11.39 72.02 11.73C72.09 12.07 72.14 12.41 72.19 12.75C72.23 13.1 72.27 13.44 72.29 13.79C72.41 15.37 72.48 17.05 72.57 18.65C72.58 18.69 72.59 18.74 72.6 18.78C72.62 18.82 72.64 18.86 72.67 18.89C72.69 18.93 72.72 18.96 72.76 18.98C72.79 19.01 72.83 19.03 72.87 19.05C73.15 19.05 73.52 19.05 73.55 19.39C73.58 19.46 73.61 19.53 73.63 19.6C73.65 19.68 73.67 19.75 73.69 19.83C73.7 19.9 73.72 19.98 73.73 20.05C73.73 20.13 73.74 20.2 73.74 20.28C73.81 20.27 73.88 20.25 73.95 20.22C74.02 20.19 74.08 20.15 74.14 20.11C74.2 20.06 74.25 20.01 74.29 19.95C74.33 19.88 74.37 19.82 74.39 19.75L74.55 19.23L74.45 11C74.45 10.31 72.68 10 73.89 9.33C74.89 8.86 75.89 8.49 76.89 7.96C76.97 7.94 77.06 7.93 77.15 7.93C77.24 7.93 77.32 7.94 77.41 7.95C77.49 7.97 77.58 7.99 77.66 8.02C77.74 8.05 77.82 8.09 77.89 8.14C78.09 8.38 77.89 8.73 78.17 8.96C78.49 8.84 78.49 8.49 78.74 8.28C78.84 8.18 78.96 8.08 79.09 8.01C79.22 7.93 79.35 7.88 79.49 7.84C79.64 7.8 79.78 7.77 79.93 7.77C80.08 7.77 80.23 7.78 80.37 7.82C80.57 7.9 80.76 7.99 80.94 8.1C81.13 8.21 81.3 8.34 81.46 8.48C81.62 8.61 81.77 8.77 81.91 8.93C82.05 9.09 82.17 9.27 82.28 9.45C82.38 9.61 82.47 9.78 82.56 9.96ZM67.92 14.57C66.66 15.29 67.01 16.89 66.98 18.08C67.1 18.56 67.24 19.17 67.8 19.35C67.9 19.39 68.02 19.42 68.13 19.42C68.24 19.43 68.35 19.42 68.46 19.39C68.57 19.35 68.67 19.3 68.76 19.24C68.86 19.17 68.94 19.09 69 19C69 18.62 69 18.25 68.99 17.87C68.99 17.5 68.97 17.12 68.96 16.75C68.94 16.37 68.92 16 68.89 15.62C68.86 15.25 68.83 14.87 68.79 14.5C68.59 14.15 68.13 14.36 67.92 14.57Z" />
	<path id="Layer" className="shp0" d="M118.17 17.4C118 17.63 117.82 17.86 117.64 18.07C117.45 18.29 117.25 18.5 117.05 18.7C116.85 18.9 116.63 19.1 116.41 19.28C116.19 19.46 115.96 19.64 115.73 19.8C110.81 19.73 106.3 18.4 101.51 18.17C101.47 18.14 101.43 18.1 101.39 18.07C101.35 18.03 101.32 17.99 101.28 17.94C101.25 17.9 101.22 17.86 101.2 17.81C101.18 17.76 101.16 17.71 101.14 17.66C104.88 17.01 108.67 17.38 112.37 17.66C112.86 17.68 113.34 17.69 113.83 17.69C114.31 17.68 114.8 17.66 115.29 17.63C115.77 17.6 116.26 17.55 116.74 17.49C117.22 17.43 117.7 17.36 118.18 17.27L118.17 17.4Z" />
	<path id="Layer" className="shp0" d="M110.81 19.73C112.23 19.89 113.67 20.01 115.09 20.19C114.29 20.69 113.43 21.08 112.53 21.35C111.63 21.62 110.69 21.77 109.75 21.79C108.81 21.82 107.87 21.72 106.95 21.5C106.04 21.28 105.16 20.94 104.33 20.49C104.11 20.36 103.89 20.23 103.68 20.09C103.47 19.95 103.26 19.8 103.06 19.64C102.86 19.48 102.66 19.32 102.47 19.15C102.29 18.98 102.1 18.8 101.93 18.61C101.93 18.51 102.14 18.61 102.24 18.54L104.24 18.72L110.81 19.73Z" />
</svg>