<svg xmlns="http://www.w3.org/2000/svg" viewBox="0 0 130 53" width="130" height="53">
	<style>
		tspan { white-space:pre }
		.shp0 { fill: #000000 } 
	</style>
	<g id="Layer">
		<path id="Layer" fill-rule="evenodd" className="shp0" d="M6.1 45.8L4.2 45.8L3.8 41.6L5.7 41.6L6.1 45.8ZM124.2 41.6L126.1 41.6L125.7 45.8L123.8 45.8L124.2 41.6ZM3 45.9L1.1 45.9L0.7 41.7L2.6 41.7L3 45.9ZM127.3 41.6L129.2 41.6L128.8 45.8L126.9 45.8L127.3 41.6ZM7.7 46.9C7.7 43.9 10.1 41.5 13.3 41.6C16.5 41.6 18.9 44 18.9 46.9C18.9 49.8 16.5 52.2 13.3 52.2C10.1 52.2 7.7 49.8 7.7 46.9ZM15.9 46.9C15.9 45.4 14.8 44.1 13.2 44.1C11.7 44.1 10.6 45.3 10.6 46.8C10.6 48.3 11.7 49.6 13.3 49.6C14.8 49.6 15.9 48.4 15.9 46.9ZM20.7 51.9L20.7 41.8L29 41.8L29 44.3L23.5 44.3L23.5 46L28.4 46L28.4 48.3L23.5 48.3L23.5 51.9L20.7 51.9ZM30.7 51.9L30.7 41.8L39 41.8L39 44.3L33.5 44.3L33.5 46L38.4 46L38.4 48.3L33.5 48.3L33.5 51.9L30.7 51.9ZM47.1 44.2L44 44.2L44 41.7L53.1 41.7L53.1 44.2L50 44.2L50 51.9L47.1 51.9L47.1 44.2ZM54.9 41.7L57.8 41.7L57.8 45.5L61.5 45.5L61.5 41.7L64.4 41.7L64.4 51.9L61.5 51.9L61.5 48L57.8 48L57.8 51.9L54.9 51.9L54.9 41.7ZM66.4 51.9L66.3 41.8L74.7 41.8L74.7 44.2L69.2 44.2L69.2 45.7L74.2 45.7L74.2 47.9L69.2 47.9L69.2 49.5L74.8 49.5L74.8 51.9L66.4 51.9ZM79.3 41.7L82.3 41.7L84.1 47.6L86.1 41.7L88.6 41.7L90.6 47.6L92.4 41.7L95.4 41.7L91.9 52L89.4 52L87.3 46.1L85.2 52L82.7 52L79.3 41.7ZM98.5 41.6L101.3 41.6L105.7 51.9L102.6 51.9L101.8 50.1L97.8 50.1L97.1 51.9L94.1 51.9L98.5 41.6ZM101.1 47.9L99.9 45L98.7 47.9L101.1 47.9ZM107.1 41.7L110 41.7L110 49.4L115 49.4L115 51.9L107.1 51.9L107.1 41.7ZM116.6 41.7L119.5 41.7L119.5 49.4L124.5 49.4L124.5 51.9L116.6 51.9L116.6 41.7ZM128.1 52C127.4 52 126.9 51.5 126.9 50.8C126.9 50.2 127.4 49.6 128.1 49.6C128.8 49.6 129.3 50.1 129.3 50.8C129.3 51.4 128.8 52 128.1 52ZM128.1 49.7C127.5 49.7 127 50.2 127 50.8C127 51.4 127.5 51.9 128.1 51.9C128.7 51.9 129.2 51.4 129.2 50.8C129.2 50.1 128.7 49.7 128.1 49.7ZM128.4 50.9L128.7 51.4L128.4 51.4L128.1 51L127.9 51L127.9 51.4L127.6 51.4L127.6 50.1L128.2 50.1C128.5 50.1 128.7 50.2 128.7 50.5C128.7 50.7 128.6 50.8 128.4 50.9ZM128.2 50.3L127.9 50.3L127.9 50.7L128.2 50.7C128.3 50.7 128.4 50.6 128.4 50.5C128.4 50.4 128.3 50.3 128.2 50.3Z" />
		<path id="Layer" fill-rule="evenodd" className="shp0" d="M112.1 16L106.5 16C106 14.6 105.4 13.6 102.2 13.6C100 13.6 99.1 14.5 99.1 15.4C99.1 16.4 99.9 17.2 102.3 17.7L107.4 19.1C110.7 20 112.3 22.6 112.3 25.4C112.3 26.9 112 28.8 110.5 30.3C109.4 31.4 107.7 32.9 102.3 32.9C94.7 32.9 92.3 28.1 92.3 25.2L98.2 25.2C98.8 27.3 100.2 28.1 103.1 28.1C105.1 28.1 106.8 27.4 106.8 25.9C106.8 24.5 105.6 23.9 104 23.5L100 22.4C98.1 21.8 96.5 21.3 95.3 20.4C92.3 17.9 92.5 13.3 95.8 11C97.6 9.7 99.4 9 102.3 9C105.7 9 107.7 10 109.2 11C110.4 11.9 112.1 14.2 112.1 16ZM25.1 -0.1L33.1 22.4L42 -0.1L114 -0.1L113.5 5.6L47 5.6L36.3 32.7L29.4 32.7C29.4 32.7 17.7 0.1 17.7 -0.1L25.1 -0.1ZM75.1 20.9L75.1 32.7L69.1 32.7L69.1 9.5L75.1 9.5L83 22.1L83 9.5L89.3 9.5L89.3 32.6L83.9 32.6L75.2 20.9L75.1 20.9ZM113.1 32.6C112.4 32.6 111.9 32.1 111.9 31.4C111.9 30.8 112.4 30.2 113.1 30.2C113.8 30.2 114.3 30.7 114.3 31.4C114.3 32.1 113.8 32.7 113.1 32.6ZM113.1 30.3C112.5 30.3 112 30.8 112 31.4C112 32 112.5 32.5 113.1 32.5C113.7 32.5 114.2 32 114.2 31.4C114.2 30.8 113.7 30.3 113.1 30.3ZM113.4 31.6L113.7 32.1L113.4 32.1L113.1 31.7L112.9 31.7L112.9 32.1L112.6 32.1L112.6 30.8L113.2 30.8C113.5 30.8 113.7 30.9 113.7 31.2C113.7 31.4 113.5 31.5 113.4 31.6ZM113.2 31L112.9 31L112.9 31.4L113.2 31.4C113.3 31.4 113.4 31.3 113.4 31.2C113.4 31.1 113.3 31 113.2 31ZM51.2 9.4L58.3 9.4L66.7 32.6L60.1 32.6L58.8 29L50 29L48.8 32.6L42.1 32.6L51.2 9.4ZM57 24.8L54.5 17.1L51.9 24.8L57 24.8Z" />
	</g>
</svg>