<svg xmlns="http://www.w3.org/2000/svg" viewBox="0 0 126 86" width="126" height="86">
	<style>
		tspan { white-space:pre }
		.shp0 { fill: #000000 } 
	</style>
	<path id="Layer" className="shp0" d="M116.5 85.5C110.5 85.5 107 82.5 106.8 78.1L112.4 78.1C112.4 79.4 113.2 81.4 116.9 81.5C119.3 81.5 120.4 80.1 120.4 79C120.3 77.3 118.1 77.2 115.9 76.8C113.6 76.4 111.7 76 110.3 75.3C108.5 74.4 107.3 72.4 107.3 70.1C107.3 66.3 110.6 63.2 116.2 63.2C121.6 63.2 125 66 125.3 70.2L119.9 70.2C119.8 69.1 119.6 67.3 116.4 67.3C114.3 67.3 112.9 67.7 112.7 69.2C112.7 71.4 117.2 71.3 120.6 72.2C123.9 73.1 126.1 75.1 126.1 78C126.1 83.4 121.8 85.5 116.5 85.5L116.5 85.5Z" />
	<path id="Layer" className="shp0" d="M13.6 49.9L32.2 39.2L42.1 56.2L17.2 56.2L13.6 49.9L13.6 49.9Z" />
	<path id="Layer" className="shp0" d="M55.3 85L50 85L50 63.5L55.3 63.5L55.3 85L55.3 85Z" />
	<path id="Layer" fill-rule="evenodd" className="shp0" d="M0 74.4C0 68.2 5 63.4 11.1 63.4C13.4 63.4 15.6 64 17.5 65.3L17.5 63.6L22.7 63.6L22.7 85L17.5 85L17.5 83.6C15.7 84.8 13.5 85.5 11.1 85.5C5 85.5 0 80.5 0 74.4ZM11.3 80.5C14.7 80.5 17.5 77.7 17.5 74.4C17.5 71.1 14.7 68.2 11.3 68.2C7.9 68.2 5.1 71 5.1 74.4C5.1 77.7 7.9 80.5 11.3 80.5Z" />
	<path id="Layer" className="shp0" d="M82.7 56.2L56.7 11.3L75.4 0.5L107.6 56.2L82.7 56.2L82.7 56.2Z" />
	<path id="Layer" fill-rule="evenodd" className="shp0" d="M24.6 74.4C24.6 68.2 29.6 63.4 35.8 63.4C38.1 63.4 40.3 64 42.1 65.3L42.1 56.3L47.4 56.3L47.4 85L42.1 85L42.1 83.6C40.2 84.8 38.1 85.5 35.8 85.5C29.6 85.5 24.6 80.5 24.6 74.4ZM35.9 80.5C39.2 80.5 42.1 77.7 42.1 74.4C42.1 71.1 39.3 68.2 35.9 68.2C32.5 68.2 29.7 71 29.7 74.4C29.7 77.7 32.5 80.5 35.9 80.5Z" />
	<path id="Layer" className="shp0" d="M35.3 30.8L54.1 20.1L74.9 56.2L55.3 56.2L55.3 61.6L50 61.6L50 56.2L35.3 30.8L35.3 30.8Z" />
	<path id="Layer" fill-rule="evenodd" className="shp0" d="M82 74.4C82 68.2 87 63.4 93.1 63.4C95.4 63.4 97.6 64 99.4 65.3L99.4 63.6L104.7 63.6L104.7 85L99.4 85L99.4 83.6C97.6 84.8 95.5 85.5 93.1 85.5C87 85.5 82 80.5 82 74.4ZM93.3 80.5C96.6 80.5 99.4 77.7 99.4 74.4C99.4 71.1 96.6 68.2 93.3 68.2C90 68.2 87.1 71 87.1 74.4C87.1 77.7 89.9 80.5 93.3 80.5Z" />
	<path id="Layer" fill-rule="evenodd" className="shp0" d="M80.1 56.2L80.1 85L74.9 85L74.9 83.6C73.1 84.8 70.9 85.5 68.5 85.5C62.4 85.5 57.4 80.5 57.4 74.4C57.4 68.2 62.4 63.4 68.5 63.4C70.9 63.4 73 64 74.9 65.3L74.9 56.2L80.1 56.2ZM68.7 80.5C72.1 80.5 74.9 77.7 74.9 74.4C74.9 71.1 72.1 68.2 68.7 68.2C65.5 68.2 62.6 71 62.6 74.4C62.6 77.7 65.4 80.5 68.7 80.5Z" />
</svg>