<svg xmlns="http://www.w3.org/2000/svg" viewBox="0 0 400 270" width="400" height="270">
	<style>
		tspan { white-space:pre }
		.shp0 { fill: javascript:void(0)231f20 } 
	</style>
	<g id="Layer">
		<path id="Layer" class="shp0" d="M86 131L125.8 118L150.4 152L150.4 110L190.3 97L150.4 84.1L150.4 42.1L125.8 76.1L86 63.1L110.7 97L86 131L86 131Z" />
		<path id="Layer" class="shp0" d="M151.1 0.6L238.7 97.1L151.1 193.6L226.3 193.6L314 97.1L226.3 0.6L151.1 0.6L151.1 0.6Z" />
		<path id="Layer" class="shp0" d="M25.3 234C28.7 234 32.2 235.7 34.5 238.5L35.3 239.5L46 232.2L45 231C40.3 225.1 33.1 221.7 25.3 221.7C11.6 221.7 0.4 232.4 0.4 245.5C0.4 258.6 11.6 269.3 25.3 269.3C33 269.3 40.2 266 44.9 260.1L45.9 258.9L35.2 251.5L34.4 252.5C32.1 255.3 28.8 256.9 25.3 256.9C19 256.9 13.6 251.6 13.6 245.4C13.6 239.2 18.9 234 25.3 234L25.3 234Z" />
		<path id="Layer" class="shp0" d="M140.2 248.2L120.8 222.9L108.5 222.9L108.5 267.7L120.5 267.7L120.5 242.6L138.5 267.7L152.2 267.7L152.2 222.9L140.2 222.9L140.2 248.2L140.2 248.2Z" />
		<path id="Layer" class="shp0" d="M186.2 254.8L186.2 254.8C186.2 255.2 185.7 255.2 185.5 255.2C185.3 255.2 184.9 255.2 184.8 254.7L174.8 222.9L161.1 222.9L175.7 267.7L195.3 267.7L209.9 222.9L196.2 222.9L186.2 254.8L186.2 254.8Z" />
		<path id="Layer" fill-rule="evenodd" class="shp0" d="M304.6 236.2C305 241.7 302.3 246.7 297.5 249.5L306.8 267.8L293.3 267.8L285.6 252.2C285.3 251.8 284.8 251.7 284.3 251.7L278.9 251.7L278.9 267.8L266.9 267.8L266.9 223L289.8 223C297.5 223 304 228.7 304.6 236.2ZM289.4 239.7C290.9 239.7 292.1 238.7 292 237.3C292 235.9 290.9 234.9 289.4 234.9L278.9 234.9L278.9 239.7L289.4 239.7Z" />
		<path id="Layer" class="shp0" d="M399.6 234.9L399.6 222.9L363.7 222.9L363.7 267.7L399.6 267.7L399.6 255.8L375.7 255.8L375.7 250.4L397.2 250.4L397.2 239.7L375.7 239.7L375.7 234.9L399.6 234.9L399.6 234.9Z" />
		<path id="Layer" class="shp0" d="M336.7 239.8C330.3 238.3 328.5 237.4 328.5 235.3L328.5 235.2C328.5 233.5 329.8 232.2 332.9 232.2C337 232.2 340.4 233.5 344.9 236.2L352.1 227.7C347.1 223.7 341.1 221.6 333.2 221.6C322.1 221.6 315.4 227.8 315.4 236.4L315.4 236.5C315.4 246 323.2 248.8 333.1 251C339.4 252.5 341.1 253.5 341.1 255.4L341.1 255.5C341.1 257.5 338.9 258.7 335.4 258.7C330.1 258.7 324.8 256.8 320.2 253.1L313 261.6C318.7 266.7 326.9 269.3 335.1 269.3C346.3 269.3 354.2 263.7 354.2 254.2L354.2 254.1C354.2 245.6 347.3 242.1 336.7 239.8L336.7 239.8Z" />
		<path id="Layer" fill-rule="evenodd" class="shp0" d="M75 221.6C88.4 221.6 99.2 232.3 99.2 245.4C99.2 258.5 88.4 269.2 75 269.2C61.7 269.2 50.8 258.5 50.8 245.4C50.8 232.3 61.6 221.6 75 221.6ZM75 256.8C81.3 256.8 86.4 251.7 86.4 245.4C86.4 239.1 81.3 234 75 234C68.7 234 63.6 239.1 63.6 245.4C63.6 251.7 68.7 256.8 75 256.8Z" />
		<path id="Layer" class="shp0" d="M218.5 267.7L254.4 267.7L254.4 255.8L230.5 255.8L230.5 250.4L252 250.4L252 239.7L230.5 239.7L230.5 234.9L254.4 234.9L254.4 222.9L218.5 222.9L218.5 267.7L218.5 267.7Z" />
	</g>
</svg>