<svg xmlns="http://www.w3.org/2000/svg" viewBox="0 0 132 26" width="132" height="26">
	<style>
		tspan { white-space:pre }
		.shp0 { fill: #231f20 } 
	</style>
	<g id="Layer">
		<path id="Layer" fill-rule="evenodd" className="shp0" d="M86.3 13C86.3 16.5 88.1 18.9 91.5 18.9C93.8 18.9 95.1 17.8 96.2 16.7C96.8 15.9 97.7 15.5 98.7 15.5C100.5 15.5 102 17 102 18.8C102 19.6 101.7 20.4 101.2 21C98.9 23.6 96.1 25.3 91.4 25.3C84 25.3 78.5 20.2 78.5 13C78.5 5.9 84.1 0.8 91.4 0.8C96.1 0.8 98.8 2.5 101.2 5.4C101.8 6 102.1 6.8 102.1 7.7C102.1 9.6 100.6 11.1 98.7 11.1C97.6 11.1 96.6 10.6 96 9.8C96 9.7 95.9 9.7 95.9 9.6C95.8 9.6 95.8 9.5 95.8 9.5C94.9 8.2 93.2 7.3 91.4 7.3C88 7.3 86.1 9.6 86.3 13ZM125.3 17.4C125.3 21.7 123 25.2 115.6 25.2C111.1 25.2 108.1 23.8 106.1 22C106 22 105.9 21.9 105.9 21.9C105.8 21.8 105.8 21.8 105.7 21.7C105.7 21.6 105.6 21.6 105.6 21.5C105.5 21.4 105.5 21.3 105.4 21.2C105.3 21.2 105.3 21.1 105.3 21.1C104.7 20 104.9 18.7 105.8 17.7C106.9 16.6 108.7 16.5 109.9 17.6L109.8 17.5C111.3 18.7 113.1 19.4 115 19.4C117.4 19.4 118.2 19 118.2 18C118.2 16.7 116.7 16.7 112.9 15.7C109.7 14.9 106.1 13.1 106.1 8.2C106.1 3 110.2 0.8 115.2 0.8C119 0.8 121.8 2 123.7 4C124.3 4.6 124.7 5.3 124.7 6.2C124.7 7.8 123.4 9.1 121.8 9.1C121 9.1 120.3 8.8 119.8 8.3C118.7 7.3 117.1 6.5 115.3 6.5C113.6 6.5 112.8 7 112.8 7.9C112.8 9.2 114.3 9.4 117.5 10.1C120.9 10.8 125.2 12.4 125.3 17.4ZM8.1 13C8.1 16.5 9.9 18.9 13.3 18.9C15.6 18.9 16.9 17.8 18 16.7C18.6 15.9 19.5 15.5 20.5 15.5C22.3 15.5 23.8 17 23.8 18.8C23.8 19.6 23.5 20.4 23 21C20.7 23.6 17.9 25.3 13.2 25.3C5.8 25.3 0.3 20.2 0.3 13C0.3 5.9 5.9 0.8 13.2 0.8C17.8 0.8 20.6 2.5 23 5.4C23.6 6 23.9 6.8 23.9 7.7C23.9 9.6 22.4 11.1 20.5 11.1C19.4 11.1 18.4 10.6 17.8 9.8C17.8 9.7 17.7 9.7 17.7 9.6C17.6 9.6 17.6 9.5 17.6 9.5C16.7 8.2 15 7.3 13.2 7.3C9.8 7.3 7.9 9.6 8.1 13ZM74.5 13C74.5 20.1 68.9 25.2 61.6 25.2C54.3 25.2 48.6 20.1 48.6 13C48.6 5.8 54.3 0.7 61.6 0.7C68.9 0.7 74.6 5.9 74.5 13ZM66.9 13.1C66.9 9.6 64.9 7.2 61.6 7.2C58.2 7.2 56.2 9.6 56.2 13.1C56.2 16.6 58.3 19 61.6 19C65 19 66.9 16.5 66.9 13.1ZM47 5C47.4 7 46 9 43.9 9.6C42.9 9.8 41.5 9.3 41 9.3C39 9.4 35.4 10.9 35.4 17.1L35.4 21.6C35.4 23.7 33.7 25.4 31.6 25.4C29.5 25.4 27.9 23.8 27.8 21.7L27.8 5C27.8 3 29.5 1.3 31.6 1.3C33.6 1.3 35.3 2.8 35.4 4.8C35.4 4.8 35.4 4.6 35.4 4.7C35.8 4.1 38.2 2 41.3 1.7C43 1.6 43.9 1.7 45 2.3C46 2.8 46.8 3.8 47 5Z" />
		<path id="Layer" className="shp0" d="M126.9 2L126.9 4.5L126.1 4.5L126.1 2L125.2 2L125.2 1.4L127.7 1.4L127.7 2L126.9 2ZM131 4.4L131 2.2L131 2.2L130.2 4.4L129.7 4.4L128.9 2.2L128.9 2.2L128.9 4.4L128.2 4.4L128.2 1.4L129.2 1.4L130 3.4L130.8 1.4L131.8 1.4L131.8 4.4L131 4.4Z" />
	</g>
</svg>