<svg xmlns="http://www.w3.org/2000/svg" viewBox="0 0 128 36" width="128" height="36">
	<defs>
		<clipPath clipPathUnits="userSpaceOnUse" id="cp1">
			<path d="M0 0.49L128 0.49L128 35.52L0 35.52L0 0.49Z" />
		</clipPath>
	</defs>
	<style>
		tspan { white-space:pre }
		.shp0 { fill: #231f20 } 
	</style>
	<path id="Layer" fill-rule="evenodd" className="shp0" d="M63.24 30.94C63.41 31 63.56 31.09 63.7 31.2C63.84 31.31 63.97 31.44 64.07 31.59C64.17 31.73 64.24 31.89 64.3 32.06C64.35 32.23 64.37 32.41 64.37 32.59C64.37 33.82 63.43 34.59 61.92 34.59L59.12 34.59L59.12 27.68L61.92 27.68C63.98 27.68 64.14 29.1 64.14 29.53C64.14 29.68 64.12 29.82 64.08 29.97C64.04 30.11 63.98 30.24 63.9 30.37C63.82 30.49 63.72 30.6 63.61 30.7C63.5 30.8 63.37 30.88 63.24 30.94ZM63.67 32.58C63.67 31.47 62.57 31.31 61.92 31.31L59.81 31.31L59.81 33.94L61.92 33.94C62.57 33.94 63.67 33.69 63.67 32.58ZM59.81 30.67L61.92 30.67C62.89 30.67 63.45 30.23 63.45 29.45C63.45 28.45 62.49 28.3 61.92 28.3L59.81 28.3L59.81 30.67Z" />
	<path id="Layer" className="shp0" d="M69.64 27.64L67.44 30.88L65.31 27.73L65.26 27.67L64.38 27.67L67.07 31.61L67.08 34.58L67.79 34.58L67.8 31.58L70.47 27.67L69.64 27.64L69.64 27.64L69.64 27.64Z" />
	<path id="Layer" className="shp0" d="M11.36 19.72L7.43 19.72C7.38 19.71 7.32 19.71 7.27 19.71C7.21 19.72 7.16 19.72 7.11 19.73C7.05 19.74 7 19.76 6.95 19.77C6.9 19.79 6.85 19.81 6.8 19.84C6.48 20.04 6.48 20.47 6.93 20.92L10.3 24.28C10.48 24.44 10.68 24.59 10.89 24.71C11.1 24.84 11.32 24.94 11.55 25.03C11.78 25.11 12.02 25.18 12.26 25.22C12.5 25.26 12.75 25.28 12.99 25.28L18.66 25.28L14.16 20.83C13.97 20.65 13.77 20.49 13.56 20.35C13.34 20.21 13.11 20.09 12.87 20C12.63 19.9 12.38 19.83 12.13 19.78C11.88 19.73 11.62 19.71 11.36 19.71L11.36 19.72Z" />
	<path id="Layer" className="shp0" d="M14 17.39L17.17 14.22C17.83 13.57 17.6 13.03 16.77 13.03L11.7 13.03C11.45 13.04 11.21 13.07 10.97 13.13C10.73 13.18 10.49 13.26 10.27 13.36C10.04 13.47 9.83 13.59 9.63 13.73C9.43 13.88 9.24 14.04 9.07 14.22L6 17.39C5.92 17.47 5.82 17.59 5.73 17.52C5.64 17.45 5.68 17.38 5.67 17.2L5.67 7.49C5.66 7.24 5.63 6.99 5.57 6.75C5.51 6.5 5.43 6.27 5.33 6.04C5.23 5.81 5.1 5.59 4.96 5.38C4.82 5.18 4.66 4.99 4.48 4.81L0 0.49L0 12.08C-0.02 12.31 -0.02 12.53 0.01 12.76C0.04 12.98 0.09 13.21 0.16 13.42C0.23 13.64 0.32 13.85 0.43 14.04C0.54 14.24 0.67 14.43 0.82 14.6L4.32 18.1C4.41 18.18 4.51 18.25 4.61 18.31C4.72 18.37 4.83 18.42 4.94 18.47C5.05 18.51 5.17 18.54 5.29 18.56C5.41 18.58 5.53 18.59 5.65 18.59L11.15 18.59C11.41 18.57 11.67 18.53 11.93 18.47C12.18 18.41 12.43 18.33 12.68 18.23C12.92 18.13 13.15 18.01 13.37 17.87C13.6 17.72 13.8 17.57 14 17.39Z" />
	<path id="Layer" fill-rule="evenodd" className="shp0" d="M94.16 28.66C94.19 28.25 94.38 27.87 94.68 27.59C94.98 27.31 95.37 27.16 95.78 27.16C96.2 27.16 96.59 27.31 96.89 27.59C97.19 27.87 97.38 28.25 97.41 28.66C97.38 29.07 97.19 29.45 96.89 29.73C96.59 30.01 96.2 30.16 95.78 30.16C95.37 30.16 94.98 30.01 94.68 29.73C94.38 29.45 94.19 29.07 94.16 28.66ZM95.79 29.98C95.97 29.98 96.14 29.94 96.3 29.87C96.46 29.8 96.61 29.7 96.73 29.58C96.85 29.45 96.94 29.3 97.01 29.13C97.07 28.97 97.1 28.8 97.09 28.62C97.12 28.26 97 27.9 96.75 27.63C96.51 27.36 96.16 27.21 95.79 27.21C95.43 27.21 95.08 27.36 94.84 27.63C94.59 27.9 94.47 28.26 94.5 28.62C94.49 28.8 94.51 28.97 94.57 29.14C94.63 29.31 94.73 29.46 94.85 29.59C94.97 29.72 95.11 29.82 95.28 29.89C95.44 29.96 95.61 30 95.79 30M95.44 29.58L95.44 29.56L95.47 29.56L95.44 29.58ZM95.18 29.56L95.18 27.76L95.88 27.76C96.31 27.76 96.51 27.89 96.53 28.28C96.53 28.34 96.51 28.4 96.49 28.46C96.47 28.52 96.43 28.57 96.39 28.62C96.35 28.66 96.3 28.7 96.24 28.73C96.18 28.76 96.12 28.77 96.06 28.78L96.57 29.61L96.26 29.61L95.77 28.77L95.44 28.77L95.44 29.56L95.18 29.56ZM95.76 28.56C96.03 28.56 96.26 28.56 96.24 28.26C96.22 27.96 96.03 27.99 95.84 27.98L95.46 27.98L95.46 28.56L95.76 28.56Z" />
	<path id="Layer" className="shp0" d="M78.26 31.11C78.25 30.85 78.27 30.59 78.31 30.34C78.34 30.08 78.41 29.83 78.49 29.58C78.58 29.34 78.69 29.1 78.81 28.88C78.94 28.65 79.09 28.44 79.26 28.24L79.26 27.74C79.26 27.72 79.26 27.7 79.26 27.68C79.26 27.67 79.27 27.65 79.27 27.63C79.28 27.61 79.28 27.59 79.29 27.58C79.3 27.56 79.31 27.55 79.32 27.53C79.33 27.52 79.35 27.5 79.37 27.49C79.38 27.48 79.4 27.47 79.42 27.46C79.43 27.45 79.45 27.44 79.47 27.44C79.49 27.43 79.51 27.42 79.53 27.42L79.53 27.28L77.82 27.28L77.82 27.42C77.84 27.42 77.86 27.43 77.88 27.43C77.9 27.44 77.92 27.45 77.94 27.46C77.96 27.47 77.97 27.48 77.99 27.49C78.01 27.5 78.02 27.52 78.04 27.53C78.04 27.55 78.05 27.56 78.05 27.58C78.05 27.6 78.05 27.62 78.05 27.63C78.05 27.65 78.05 27.67 78.05 27.69C78.05 27.71 78.04 27.72 78.04 27.74L78.04 30.82C78.04 30.89 78.05 30.95 78.05 31.02C78.05 31.08 78.05 31.15 78.05 31.21C78.05 31.28 78.05 31.35 78.05 31.41C78.05 31.48 78.04 31.54 78.04 31.61C78.03 31.65 78.02 31.69 78.01 31.73C78 31.76 77.98 31.8 77.96 31.84C77.95 31.87 77.93 31.91 77.91 31.94C77.89 31.98 77.86 32.01 77.84 32.04C77.65 32.18 77.43 32.3 77.2 32.37C76.97 32.45 76.73 32.49 76.48 32.49C76.24 32.49 76 32.45 75.77 32.37C75.54 32.3 75.32 32.18 75.13 32.04C75.11 32.01 75.08 31.98 75.06 31.94C75.04 31.91 75.02 31.87 75 31.84C74.99 31.8 74.97 31.76 74.96 31.73C74.95 31.69 74.94 31.65 74.93 31.61C74.92 31.54 74.91 31.48 74.9 31.41C74.89 31.35 74.88 31.28 74.88 31.22C74.87 31.15 74.87 31.08 74.87 31.02C74.87 30.95 74.87 30.89 74.87 30.82L74.87 27.74C74.87 27.72 74.87 27.7 74.87 27.69C74.87 27.67 74.88 27.65 74.88 27.63C74.89 27.61 74.89 27.6 74.9 27.58C74.9 27.56 74.91 27.55 74.92 27.53C74.93 27.52 74.95 27.5 74.97 27.49C74.98 27.48 75 27.47 75.02 27.46C75.03 27.45 75.05 27.44 75.07 27.43C75.09 27.42 75.11 27.42 75.13 27.41L75.13 27.27L73.38 27.27L73.38 27.42C73.4 27.42 73.42 27.43 73.44 27.43C73.45 27.44 73.47 27.45 73.49 27.46C73.51 27.47 73.52 27.48 73.54 27.49C73.55 27.5 73.57 27.52 73.58 27.53C73.59 27.55 73.6 27.56 73.61 27.58C73.62 27.59 73.62 27.61 73.63 27.63C73.63 27.65 73.64 27.67 73.64 27.68C73.64 27.7 73.64 27.72 73.64 27.74L73.64 31.2C73.64 31.29 73.64 31.39 73.64 31.48C73.65 31.58 73.66 31.67 73.67 31.77C73.68 31.86 73.7 31.95 73.72 32.05C73.74 32.14 73.76 32.23 73.79 32.32C73.81 32.4 73.85 32.47 73.88 32.54C73.92 32.61 73.97 32.68 74.01 32.75C74.06 32.81 74.12 32.87 74.18 32.92C74.24 32.98 74.3 33.03 74.37 33.07C74.52 33.16 74.69 33.23 74.85 33.3C75.02 33.36 75.19 33.42 75.36 33.46C75.53 33.5 75.71 33.52 75.89 33.54C76.06 33.55 76.24 33.55 76.42 33.54C76.61 33.56 76.8 33.56 76.98 33.54C77.17 33.53 77.36 33.5 77.54 33.45C77.72 33.41 77.9 33.35 78.07 33.27C78.25 33.19 78.41 33.1 78.57 33C78.51 32.85 78.47 32.7 78.43 32.54C78.38 32.39 78.35 32.23 78.32 32.07C78.3 31.92 78.28 31.76 78.27 31.6C78.26 31.44 78.26 31.28 78.26 31.12" />
	<g id="Clip-Path" clip-path="url(#cp1)">
		<g id="Layer">
			<path id="Layer" className="shp0" d="M92.31 30.74C92.33 30.72 92.34 30.71 92.36 30.7C92.38 30.68 92.4 30.67 92.42 30.66C92.44 30.65 92.46 30.64 92.48 30.64C92.5 30.63 92.52 30.62 92.54 30.62L92.54 30.47L89.6 30.47C89.58 30.47 89.56 30.47 89.54 30.47C89.53 30.46 89.51 30.46 89.49 30.45C89.47 30.45 89.45 30.44 89.44 30.43C89.42 30.42 89.4 30.41 89.39 30.4C89.37 30.38 89.36 30.37 89.35 30.35C89.33 30.33 89.32 30.31 89.31 30.29C89.3 30.27 89.29 30.25 89.29 30.23C89.28 30.21 89.27 30.19 89.27 30.17L89.13 30.17L89.13 31.67L89.27 31.67C89.27 31.65 89.28 31.63 89.29 31.6C89.29 31.58 89.3 31.56 89.31 31.54C89.32 31.52 89.33 31.5 89.35 31.48C89.36 31.46 89.37 31.45 89.39 31.43C89.41 31.42 89.42 31.41 89.44 31.4C89.46 31.4 89.47 31.39 89.49 31.39C89.51 31.38 89.53 31.38 89.54 31.37C89.56 31.37 89.58 31.37 89.6 31.37L91.13 31.37L91.13 32.24C91.13 32.24 90.86 32.78 89.13 32.87C88.98 32.88 88.83 32.88 88.68 32.86C88.53 32.85 88.39 32.83 88.24 32.79C88.1 32.76 87.96 32.71 87.82 32.65C87.68 32.6 87.55 32.53 87.42 32.45L87.42 33.7C87.56 33.75 87.7 33.79 87.84 33.82C87.98 33.86 88.13 33.89 88.27 33.91C88.42 33.93 88.56 33.94 88.71 33.95C88.86 33.96 89 33.96 89.15 33.95C89.46 33.95 89.77 33.93 90.07 33.88C90.37 33.83 90.67 33.75 90.96 33.65C91.25 33.54 91.54 33.41 91.8 33.26C92.07 33.11 92.32 32.93 92.56 32.73L92.56 32.62C92.54 32.61 92.52 32.61 92.5 32.6C92.48 32.59 92.46 32.58 92.44 32.57C92.42 32.56 92.41 32.55 92.39 32.54C92.37 32.53 92.36 32.51 92.34 32.5C92.33 32.48 92.32 32.47 92.31 32.45C92.3 32.43 92.29 32.42 92.28 32.4C92.28 32.38 92.27 32.36 92.27 32.34C92.27 32.32 92.27 32.3 92.27 32.28L92.27 31C92.27 30.98 92.27 30.96 92.27 30.94C92.27 30.92 92.28 30.9 92.28 30.88C92.29 30.86 92.3 30.85 92.31 30.83C92.32 30.81 92.33 30.79 92.34 30.78M87.58 28.8C87.69 28.71 87.81 28.62 87.94 28.55C88.06 28.48 88.2 28.42 88.33 28.38C88.47 28.33 88.61 28.29 88.76 28.27C88.9 28.25 89.04 28.24 89.19 28.25C89.27 28.25 89.36 28.26 89.44 28.26C89.53 28.27 89.61 28.28 89.7 28.29C89.78 28.3 89.86 28.32 89.94 28.34C90.03 28.36 90.11 28.38 90.19 28.4C90.26 28.42 90.33 28.44 90.4 28.46C90.47 28.49 90.54 28.51 90.61 28.54C90.68 28.58 90.74 28.61 90.81 28.64C90.87 28.68 90.94 28.72 91 28.76C91.09 28.84 91.14 28.88 91.16 28.93C91.16 28.95 91.17 28.97 91.17 28.98C91.17 29 91.17 29.02 91.17 29.04C91.17 29.06 91.17 29.08 91.17 29.1C91.17 29.11 91.16 29.13 91.16 29.15L91.29 29.22L92.01 27.69L91.88 27.63C91.87 27.64 91.85 27.66 91.83 27.67C91.82 27.68 91.8 27.69 91.78 27.7C91.76 27.71 91.74 27.72 91.72 27.72C91.7 27.73 91.68 27.73 91.66 27.73C91.62 27.73 91.58 27.72 91.55 27.71C91.51 27.7 91.47 27.7 91.43 27.68C91.4 27.67 91.36 27.66 91.33 27.65C91.29 27.63 91.25 27.62 91.22 27.6C91.13 27.57 91.05 27.54 90.96 27.5C90.87 27.47 90.78 27.44 90.69 27.42C90.61 27.39 90.52 27.36 90.43 27.33C90.34 27.31 90.25 27.28 90.16 27.26C90.08 27.25 89.99 27.23 89.91 27.22C89.83 27.21 89.75 27.2 89.66 27.19C89.58 27.18 89.49 27.18 89.41 27.17C89.33 27.17 89.24 27.16 89.16 27.16C88.99 27.14 88.82 27.14 88.65 27.15C88.48 27.16 88.3 27.17 88.14 27.21C87.97 27.24 87.8 27.28 87.64 27.33C87.47 27.38 87.31 27.45 87.16 27.52L86.16 29.7L85.74 29.57L85.74 29.34C85.7 29.43 85.67 29.52 85.64 29.61C85.62 29.7 85.59 29.79 85.58 29.89C85.56 29.98 85.55 30.08 85.54 30.17C85.53 30.27 85.53 30.36 85.53 30.46C85.53 30.59 85.53 30.96 85.53 30.96L86.87 30.96C86.87 30.96 86.87 30.67 86.87 30.48C86.87 30.32 86.88 30.16 86.92 30.01C86.95 29.85 87 29.7 87.06 29.56C87.13 29.41 87.21 29.28 87.3 29.15C87.39 29.02 87.5 28.9 87.62 28.8" />
			<path id="Layer" className="shp0" d="M85.74 32.31L83.74 32.31C83.72 32.31 83.69 32.31 83.67 32.31C83.64 32.31 83.62 32.32 83.6 32.33C83.57 32.34 83.55 32.35 83.53 32.36C83.51 32.37 83.49 32.38 83.47 32.4C83.45 32.42 83.43 32.45 83.42 32.47C83.4 32.49 83.39 32.52 83.38 32.55C83.36 32.57 83.35 32.6 83.34 32.63C83.33 32.65 83.33 32.68 83.32 32.71L83.14 32.71L83.14 30.71L83.34 30.71C83.34 30.74 83.35 30.77 83.36 30.79C83.36 30.82 83.37 30.85 83.39 30.88C83.4 30.9 83.41 30.93 83.43 30.95C83.44 30.98 83.46 31 83.48 31.02C83.5 31.04 83.52 31.05 83.54 31.06C83.56 31.07 83.58 31.08 83.61 31.09C83.63 31.1 83.65 31.11 83.68 31.11C83.7 31.11 83.73 31.11 83.75 31.11L87.52 31.11L87.52 31.31C87.49 31.32 87.47 31.32 87.44 31.33C87.41 31.34 87.39 31.35 87.36 31.37C87.34 31.38 87.31 31.4 87.29 31.41C87.27 31.43 87.25 31.45 87.23 31.47C87.21 31.49 87.2 31.51 87.19 31.54C87.18 31.56 87.17 31.58 87.16 31.61C87.16 31.63 87.15 31.66 87.15 31.68C87.15 31.71 87.15 31.73 87.15 31.76L87.15 33.51C87.15 33.54 87.15 33.56 87.15 33.59C87.15 33.61 87.16 33.64 87.16 33.66C87.17 33.69 87.18 33.71 87.19 33.73C87.2 33.76 87.21 33.78 87.22 33.8C87.24 33.82 87.26 33.84 87.29 33.86C87.31 33.87 87.33 33.89 87.36 33.9C87.38 33.92 87.41 33.93 87.44 33.94C87.46 33.95 87.49 33.96 87.52 33.97L87.52 34.13C87.2 34.34 86.86 34.53 86.51 34.7C86.15 34.87 85.79 35.01 85.42 35.12C85.05 35.24 84.67 35.33 84.29 35.39C83.91 35.46 83.52 35.49 83.13 35.5C82.85 35.51 82.57 35.5 82.29 35.46C82.02 35.42 81.74 35.36 81.48 35.27C81.21 35.19 80.95 35.08 80.71 34.95C80.46 34.82 80.22 34.67 80 34.5C79.53 34.08 79.15 33.57 78.89 33.01C78.62 32.44 78.48 31.82 78.46 31.19C78.45 30.56 78.56 29.94 78.8 29.36C79.03 28.78 79.38 28.25 79.83 27.81C80.07 27.61 80.32 27.44 80.59 27.29C80.86 27.14 81.15 27.02 81.44 26.92C81.73 26.82 82.03 26.75 82.34 26.71C82.64 26.67 82.95 26.65 83.26 26.67C83.37 26.67 83.48 26.67 83.58 26.68C83.69 26.68 83.8 26.69 83.9 26.7C84.01 26.71 84.12 26.73 84.22 26.75C84.33 26.76 84.44 26.79 84.54 26.81C84.66 26.84 84.77 26.86 84.89 26.89C85.01 26.93 85.12 26.96 85.24 27C85.35 27.04 85.46 27.08 85.58 27.12C85.69 27.16 85.8 27.21 85.91 27.26C85.96 27.28 86.01 27.31 86.06 27.33C86.11 27.34 86.16 27.36 86.21 27.38C86.26 27.39 86.31 27.41 86.36 27.42C86.41 27.43 86.47 27.43 86.52 27.44C86.55 27.44 86.57 27.44 86.6 27.43C86.63 27.42 86.65 27.41 86.68 27.4C86.7 27.39 86.72 27.37 86.74 27.36C86.76 27.34 86.78 27.32 86.8 27.3L86.97 27.4L86.05 29.4L85.87 29.33C85.87 29.3 85.86 29.28 85.86 29.25C85.85 29.22 85.84 29.2 85.84 29.17C85.83 29.14 85.82 29.12 85.81 29.09C85.8 29.07 85.78 29.04 85.77 29.02C85.76 29 85.74 28.98 85.73 28.96C85.72 28.94 85.7 28.92 85.68 28.9C85.67 28.88 85.65 28.86 85.63 28.85C85.61 28.83 85.59 28.81 85.57 28.8C85.5 28.74 85.42 28.69 85.34 28.64C85.26 28.59 85.18 28.55 85.09 28.51C85.01 28.46 84.92 28.43 84.84 28.4C84.75 28.36 84.66 28.33 84.57 28.31C84.46 28.28 84.36 28.25 84.25 28.23C84.14 28.2 84.04 28.18 83.93 28.16C83.82 28.15 83.71 28.13 83.6 28.12C83.49 28.11 83.38 28.1 83.27 28.1C83.08 28.09 82.89 28.11 82.71 28.14C82.52 28.17 82.34 28.21 82.16 28.28C81.99 28.34 81.82 28.42 81.65 28.52C81.49 28.61 81.34 28.73 81.2 28.85C81.05 28.99 80.91 29.15 80.79 29.32C80.68 29.49 80.58 29.68 80.5 29.87C80.42 30.06 80.36 30.26 80.32 30.47C80.29 30.67 80.27 30.88 80.28 31.09C80.27 31.29 80.29 31.5 80.32 31.69C80.36 31.89 80.42 32.09 80.5 32.28C80.57 32.46 80.67 32.64 80.79 32.81C80.91 32.97 81.04 33.12 81.19 33.26C81.34 33.39 81.5 33.5 81.67 33.6C81.84 33.7 82.02 33.78 82.2 33.85C82.39 33.91 82.58 33.96 82.77 33.99C82.97 34.02 83.16 34.03 83.36 34.02C83.47 34.02 83.58 34.02 83.69 34.01C83.8 34 83.91 33.99 84.02 33.98C84.12 33.97 84.23 33.95 84.34 33.93C84.45 33.91 84.55 33.89 84.66 33.86C84.76 33.84 84.85 33.81 84.95 33.78C85.05 33.75 85.14 33.72 85.23 33.68C85.33 33.65 85.42 33.61 85.51 33.56C85.6 33.52 85.68 33.47 85.77 33.42" />
		</g>
	</g>
	<path id="Layer" className="shp0" d="M23.75 25.21L24.83 25.21L24.83 13.01L23.75 13.01L23.75 25.21L23.75 25.21L23.75 25.21Z" />
	<path id="Layer" fill-rule="evenodd" className="shp0" d="M38.85 13C42.15 13 44.45 15.54 44.45 19.17C44.45 22.8 42.16 25.34 38.85 25.34C35.54 25.34 33.22 22.86 33.22 19.17C33.22 15.48 35.49 13.01 38.85 13.01L38.85 13ZM38.85 24.4C41.52 24.4 43.39 22.26 43.39 19.2C43.39 16.14 41.54 14 38.85 14C36.16 14 34.29 16.11 34.29 19.17C34.29 22.23 36.16 24.37 38.85 24.37L38.85 24.4Z" />
	<path id="Layer" fill-rule="evenodd" className="shp0" d="M56.61 19.16C56.61 22.79 54.31 25.33 51 25.33C47.69 25.33 45.38 22.85 45.38 19.16C45.38 15.47 47.64 13 51 13C54.29 13 56.61 15.53 56.61 19.16ZM51 24.4C53.67 24.4 55.54 22.26 55.54 19.2C55.54 16.14 53.7 14 51 14C48.3 14 46.44 16.11 46.44 19.17C46.44 22.23 48.31 24.37 51 24.37L51 24.4Z" />
	<path id="Layer" fill-rule="evenodd" className="shp0" d="M70.53 13.27L75.18 25.06L74.05 25.06L72.6 21.39L67.37 21.39L65.92 25.06L58.06 25.06L58.06 13.27L59.16 13.27L59.16 24.1L65.16 24.1L69.52 13.27L70.53 13.27ZM72.21 20.43L70 14.59L67.74 20.43L72.21 20.43Z" />
	<path id="Layer" fill-rule="evenodd" className="shp0" d="M82.92 18.84C83.21 18.94 83.49 19.09 83.73 19.28C83.98 19.46 84.19 19.69 84.37 19.94C84.55 20.19 84.69 20.47 84.78 20.77C84.87 21.06 84.92 21.37 84.92 21.68C84.92 23.8 83.36 25.06 80.76 25.06L76 25.06L76 13.3L80.72 13.3C83.08 13.3 84.49 14.44 84.49 16.44C84.49 16.7 84.46 16.96 84.38 17.21C84.3 17.46 84.19 17.7 84.04 17.92C83.89 18.13 83.71 18.32 83.51 18.49C83.3 18.65 83.07 18.78 82.83 18.87L82.92 18.84ZM77 19.43L77 24.13L80.72 24.13C82.69 24.13 83.82 23.25 83.82 21.71C83.82 19.75 81.88 19.46 80.72 19.46L77.02 19.46L77 19.43ZM80.7 18.46C82.41 18.46 83.41 17.65 83.41 16.29C83.41 14.51 81.7 14.24 80.7 14.24L77 14.24L77 18.46L80.7 18.46Z" />
	<path id="Layer" className="shp0" d="M94.48 20.3C94.48 23.11 93.38 24.37 90.91 24.37C88.1 24.37 87.5 22.16 87.5 20.3L87.5 13.3L86.5 13.3L86.5 20.3C86.5 23.64 88 25.3 90.96 25.3C93.92 25.3 95.59 23.6 95.59 20.3L95.59 13.3L94.53 13.3L94.53 20.3L94.48 20.3Z" />
	<path id="Layer" fill-rule="evenodd" className="shp0" d="M106.02 22.93C106 23.09 106 23.24 106 23.4C106.01 23.56 106.02 23.71 106.05 23.87C106.07 24.03 106.11 24.18 106.15 24.33C106.2 24.48 106.25 24.63 106.32 24.77L106.54 25.06L105.29 25.06L105.29 24.97C105.22 24.81 105.17 24.64 105.12 24.47C105.08 24.3 105.04 24.13 105.02 23.96C104.99 23.78 104.98 23.61 104.98 23.43C104.97 23.26 104.98 23.08 105 22.91C105 22.51 105 22.09 105 21.7C104.88 20.79 104.49 19.85 102.49 19.85L98.6 19.85L98.6 25.06L97.54 25.06L97.54 13.33L102.49 13.33C102.72 13.32 102.95 13.32 103.19 13.34C103.42 13.36 103.65 13.4 103.87 13.46C104.1 13.52 104.32 13.59 104.53 13.68C104.75 13.77 104.95 13.88 105.15 14C105.34 14.13 105.51 14.29 105.67 14.47C105.82 14.64 105.95 14.84 106.05 15.05C106.15 15.26 106.23 15.48 106.28 15.71C106.33 15.93 106.35 16.17 106.34 16.4C106.35 16.71 106.32 17.02 106.23 17.32C106.15 17.62 106.02 17.91 105.84 18.17C105.67 18.43 105.46 18.66 105.22 18.86C104.97 19.05 104.7 19.21 104.41 19.32C104.66 19.41 104.9 19.53 105.12 19.7C105.33 19.86 105.52 20.06 105.67 20.28C105.82 20.5 105.94 20.75 106.01 21C106.09 21.26 106.12 21.53 106.11 21.8C106.11 22.17 106.11 22.56 106.11 22.93L106.02 22.93ZM105.22 16.45C105.22 14.46 103.31 14.24 102.49 14.24L98.6 14.24L98.6 18.89L102.49 18.89C103.51 18.89 105.22 18.57 105.22 16.45Z" />
	<path id="Layer" fill-rule="evenodd" className="shp0" d="M116.58 22.93C116.56 23.09 116.56 23.25 116.56 23.4C116.57 23.56 116.58 23.72 116.61 23.87C116.63 24.03 116.67 24.19 116.71 24.34C116.76 24.49 116.81 24.64 116.88 24.78L117.1 25.06L115.85 25.06L115.8 24.97C115.73 24.81 115.68 24.64 115.63 24.47C115.58 24.3 115.55 24.13 115.52 23.96C115.5 23.78 115.49 23.61 115.48 23.43C115.48 23.26 115.49 23.08 115.51 22.91C115.52 22.81 115.52 22.71 115.52 22.61C115.53 22.51 115.53 22.41 115.53 22.3C115.53 22.2 115.53 22.1 115.52 22C115.52 21.9 115.52 21.8 115.51 21.7C115.39 20.79 115 19.85 113 19.85L109.11 19.85L109.11 25.06L108.05 25.06L108.05 13.27L113.05 13.27C115.53 13.28 116.85 14.4 116.85 16.4C116.86 16.71 116.83 17.02 116.74 17.32C116.66 17.62 116.53 17.91 116.35 18.17C116.18 18.43 115.97 18.66 115.73 18.86C115.48 19.05 115.21 19.21 114.92 19.32C115.17 19.41 115.41 19.53 115.63 19.7C115.84 19.86 116.03 20.06 116.18 20.28C116.33 20.5 116.45 20.75 116.52 21C116.6 21.26 116.63 21.53 116.62 21.8C116.62 22.17 116.62 22.56 116.62 22.93L116.58 22.93ZM109.11 14.24L109.11 18.89L113 18.89C114.02 18.89 115.73 18.44 115.73 16.45C115.73 14.46 113.82 14.24 113 14.24L109.11 14.24Z" />
	<path id="Layer" fill-rule="evenodd" className="shp0" d="M123.39 13.44L128 25.11L126.91 25.11L125.47 21.44L120.24 21.44L118.78 25.11L117.64 25.11L117.74 24.87L122.39 13.32L123.39 13.32L123.39 13.44ZM122.85 14.6L120.56 20.43L125.06 20.43L122.85 14.6Z" />
	<path id="Layer" className="shp0" d="M31.69 13.01L25.54 19.16L25.41 19.29L31.28 25.16L31.34 25.21L32.85 25.21L26.92 19.29L33.21 13.01L31.69 13.01L31.69 13.01L31.69 13.01Z" />
	<path id="Layer" className="shp0" d="M23.78 31.47L50.3 31.47L50.3 30.78L23.78 30.78L23.78 31.47L23.78 31.47L23.78 31.47Z" />
	<path id="Layer" className="shp0" d="M101.37 30.78L101.37 31.47L127.88 31.47L127.88 30.78L101.37 30.78L101.37 30.78L101.37 30.78Z" />
</svg>