<svg xmlns="http://www.w3.org/2000/svg" viewBox="0 0 127 78" width="127" height="78">
	<style>
		tspan { white-space:pre }
		.shp0 { fill: #000000 } 
	</style>
	<g id="Layer">
		<path id="Layer" className="shp0" d="M91.5 73.8C91.5 73.5 91.5 73.3 91.4 73C91.3 72.6 91.2 72.3 90.9 72C90.8 71.9 90.7 71.8 90.5 71.7C90.4 71.7 90.4 71.6 90.3 71.6C90 71.4 89.7 71.2 89.3 71.1C89.2 71.1 89.1 71 89 70.9C88.9 70.8 88.9 70.6 88.9 70.5C88.9 70.4 89 70.3 89 70.2C89.1 70 89.3 69.8 89.4 69.6C89.5 69.5 89.7 69.3 89.8 69.1C89.9 68.9 90 68.8 90.1 68.6C90.2 68.4 90.3 68.4 90.5 68.4C90.6 68.4 90.7 68.4 90.8 68.6L90.8 68.6C90.8 68.7 90.9 68.8 91 68.7C91.2 68.7 91.3 68.6 91.5 68.6C91.8 68.5 92.2 68.4 92.5 68.3C92.7 68.2 93 68.2 93.3 68.2C93.4 68.2 93.5 68.2 93.6 68.2C93.7 68.2 93.8 68.2 94 68.2C94.1 68.2 94.1 68.2 94.2 68.2C94.3 68.2 94.4 68.2 94.5 68.2L94.6 68.2C94.7 68.2 94.7 68.2 94.7 68.3C94.7 68.4 94.7 68.6 94.6 68.7C94.5 68.8 94.4 68.9 94.2 69.1C94.1 69.2 94.1 69.2 94 69.3C93.9 69.4 93.7 69.5 93.6 69.6C93.5 69.7 93.4 69.7 93.3 69.7C93.2 69.7 93.1 69.7 93 69.7C92.6 69.7 92.1 69.8 91.7 69.8C91.6 69.8 91.5 69.8 91.4 69.8C91.2 69.8 91 69.8 90.8 69.8C90.7 69.8 90.7 69.8 90.6 69.9C90.6 70 90.5 70.2 90.4 70.3L90.4 70.4C90.4 70.5 90.4 70.5 90.5 70.5C90.7 70.6 90.8 70.7 91 70.8C91.2 70.8 91.3 70.9 91.4 71.1C91.9 71.6 92.3 72.2 92.5 72.8C92.6 73.2 92.7 73.6 92.7 73.9C92.7 74.2 92.7 74.4 92.6 74.7C92.6 74.8 92.5 75 92.5 75.1C92.4 75.3 92.3 75.5 92.2 75.7C92.1 75.8 92 75.9 91.9 76C91.7 76.2 91.5 76.3 91.3 76.5C91.2 76.6 91.2 76.6 91.1 76.6C90.8 76.7 90.4 76.8 90.1 76.9C89.9 76.9 89.7 76.9 89.5 76.9C89.3 76.9 89.1 76.9 88.9 76.8C88.8 76.8 88.7 76.7 88.5 76.6C88.2 76.4 88 76.3 87.8 76C87.8 76 87.8 75.9 87.7 75.9C87.6 75.7 87.5 75.5 87.5 75.3C87.4 75.1 87.4 75 87.3 74.8C87.3 74.7 87.3 74.6 87.4 74.5C87.5 74.5 87.5 74.4 87.6 74.4C87.8 74.3 87.9 74.3 88 74.4C88.1 74.5 88.1 74.6 88.1 74.7C88.2 74.9 88.2 75.1 88.3 75.3C88.4 75.6 88.6 75.7 88.9 75.8L89 75.8C89.1 75.8 89.3 75.8 89.4 75.8C89.7 75.8 89.9 75.7 90.2 75.6C90.3 75.6 90.3 75.5 90.4 75.5C90.7 75.4 90.8 75.2 91 75C91.1 74.9 91.2 74.7 91.2 74.5C91.4 74.4 91.5 74.1 91.5 73.8Z" />
		<path id="Layer" className="shp0" d="M75.3 71C75.3 70.7 75.3 70.4 75.4 70.2C75.4 70.1 75.5 70 75.5 69.9C75.6 69.7 75.7 69.6 75.8 69.4C76 69 76.4 68.7 76.7 68.4C76.7 68.4 76.8 68.3 76.9 68.3C77.2 68.2 77.5 68.1 77.9 68.1C78.3 68.1 78.7 68.1 79 68.3L79.1 68.3C79.4 68.4 79.7 68.6 79.9 68.8L80 68.9C80.2 69.1 80.2 69.4 80.2 69.7C80.2 69.8 80.2 69.8 80.2 69.9C80.3 70.4 80.1 70.8 80 71.3C80 71.4 80 71.4 80 71.5C80 71.8 79.8 72.2 79.6 72.5C79.4 73.1 79 73.6 78.7 74.1C78.6 74.3 78.5 74.5 78.3 74.7C78.1 74.9 78 75.1 77.8 75.3C77.7 75.5 77.5 75.7 77.3 75.8C77.2 75.9 77.2 76 77.1 76C77 76.1 77 76.1 76.9 76.2C76.7 76.3 76.6 76.5 76.5 76.6C76.4 76.7 76.4 76.7 76.3 76.8C76.1 76.9 76 77.1 75.8 77.2C75.7 77.3 75.6 77.3 75.5 77.4C75.4 77.4 75.4 77.4 75.3 77.4C75.2 77.4 75.1 77.3 75 77.3C74.9 77.3 74.9 77.3 74.8 77.2C74.7 77.2 74.6 77 74.7 76.9C74.7 76.8 74.8 76.8 74.8 76.7L74.8 76.7C75 76.4 75.3 76.2 75.6 76C75.9 75.7 76.2 75.5 76.5 75.3C76.6 75.3 76.6 75.2 76.7 75.2C77 75 77.3 74.7 77.5 74.4C77.5 74.3 77.6 74.2 77.7 74.1C77.8 73.9 77.9 73.7 78 73.5C78.2 73.1 78.3 72.6 78.4 72.2C78.5 71.9 78.5 71.6 78.6 71.3C78.6 71.1 78.7 70.9 78.7 70.7C78.7 70.6 78.7 70.4 78.7 70.3C78.7 69.9 78.8 69.4 78.5 69.1C78.4 69 78.2 68.9 78.1 68.9C77.9 68.9 77.6 68.9 77.4 69.1C77.1 69.3 76.9 69.6 76.6 69.8C76.5 70 76.4 70.1 76.3 70.3C76.2 70.7 76.2 71.2 76.2 71.6L76.2 71.7C76.3 71.9 76.4 72.1 76.5 72.2C76.6 72.3 76.8 72.4 76.9 72.5C77 72.5 77.1 72.5 77.1 72.5C77.2 72.5 77.2 72.4 77.3 72.4C77.4 72.4 77.4 72.4 77.5 72.4C77.5 72.4 77.6 72.4 77.6 72.5C77.7 72.5 77.7 72.6 77.7 72.7C77.5 72.9 77.4 73 77.1 73.1C77 73.1 76.9 73.1 76.8 73.1C76.6 73.1 76.4 73 76.1 73C75.5 72.7 75.3 71.8 75.3 71Z" />
		<path id="Layer" className="shp0" d="M82.4 75.8C82.6 75.8 82.8 75.8 83.1 75.8C83.3 75.8 83.4 75.8 83.5 75.7C83.6 75.7 83.7 75.6 83.8 75.6C84 75.5 84.2 75.3 84.3 75.1C84.6 74.7 84.8 74.3 84.9 73.9C85 73.6 85 73.3 85 73C84.9 72.8 84.8 72.6 84.6 72.5C84.4 72.5 84.3 72.4 84.1 72.4C84 72.4 83.9 72.4 83.8 72.4C83.7 72.4 83.5 72.4 83.4 72.4C83.3 72.4 83.1 72.4 83 72.3C82.9 72.2 82.9 72.1 82.9 72C82.9 72 82.9 72 83 71.9C83.1 71.9 83.1 71.8 83.2 71.8C83.4 71.8 83.5 71.7 83.6 71.6C83.7 71.5 83.8 71.5 83.9 71.5C84.2 71.4 84.4 71.2 84.7 71.1C85.1 70.9 85.4 70.5 85.6 70.1L85.6 70C85.7 69.8 85.7 69.6 85.6 69.4C85.6 69.3 85.4 69.2 85.3 69.2C85.2 69.2 85 69.1 84.9 69.1C84.8 69.1 84.6 69.1 84.5 69.2C84.3 69.3 84.1 69.5 83.9 69.7C83.7 69.9 83.5 69.9 83.3 69.8C83.1 69.7 83 69.6 82.9 69.5C82.8 69.3 83 69.2 83.1 69.1C83.2 69 83.3 68.9 83.4 68.9L83.5 68.8C83.8 68.6 84 68.5 84.3 68.4C84.5 68.3 84.6 68.4 84.8 68.4C85.2 68.4 85.6 68.6 86 68.9C86.1 69 86.2 69 86.3 69.1C86.5 69.3 86.6 69.5 86.6 69.8C86.6 70.1 86.5 70.4 86.4 70.7C86.3 71 86.2 71.2 86 71.4C85.9 71.5 85.8 71.6 85.7 71.7C85.6 71.8 85.6 71.9 85.7 72C85.8 72.1 85.8 72.1 85.9 72.2C86 72.4 86.1 72.5 86.1 72.8C86.1 72.9 86.2 73.1 86.2 73.2C86.3 73.4 86.3 73.5 86.3 73.7C86.3 73.9 86.3 74.1 86.2 74.3C86.2 74.5 86.1 74.8 86 75C85.8 75.3 85.6 75.5 85.4 75.8C85.2 76.1 84.9 76.2 84.6 76.4C84.3 76.6 84 76.7 83.7 76.8C83.5 76.8 83.3 76.9 83.1 76.9C82.8 76.9 82.5 77 82.2 77C82.1 77 81.9 77 81.8 77C81.6 77 81.5 76.9 81.3 76.8C80.7 76.4 81.7 76 82 76C82.1 76 82.2 76 82.3 76C82.3 75.8 82.3 75.8 82.4 75.8L82.4 75.8Z" />
		<path id="Layer" className="shp0" d="M72 76.8C71.8 76.8 71.6 76.8 71.4 76.8C71.2 76.8 71.1 76.8 70.9 76.8C70.3 76.8 69.8 76.8 69.2 76.8C69 76.8 69 76.8 69 76.6C69 76.5 69 76.4 69.1 76.4C69.3 76.3 69.5 76.1 69.6 75.9C69.7 75.8 69.8 75.7 69.8 75.6C69.9 75.4 70 75.2 70.1 75C70.1 74.9 70.2 74.7 70.2 74.6C70.2 74.4 70.3 74.2 70.3 74C70.3 73.8 70.4 73.6 70.4 73.4L70.4 73.3C70.4 73.2 70.4 73 70.5 72.9C70.8 71.8 70.8 70.6 71.1 69.5C71.1 69.4 71.1 69.2 71.2 69C71.2 68.9 71.2 68.8 71.2 68.7C71.2 68.6 71.1 68.5 71 68.5C70.8 68.4 70.7 68.2 70.7 68.1C70.7 67.9 70.8 67.8 70.9 67.8C71 67.8 71.1 67.8 71.2 67.8C71.3 67.8 71.4 67.8 71.5 67.8C71.7 67.8 71.9 67.8 72 67.8C72.1 67.8 72.2 67.8 72.3 67.8C72.4 67.8 72.5 67.8 72.6 67.8C72.9 67.8 73 68.2 72.7 68.3C72.5 68.3 72.4 68.5 72.3 68.6C72.2 68.9 72.1 69.2 72 69.5C72 69.6 72 69.6 72 69.6C71.9 69.9 71.9 70.2 71.8 70.6C71.7 70.9 71.7 71.2 71.7 71.4C71.7 71.8 71.6 72.3 71.5 72.7C71.4 73.1 71.3 73.5 71.3 73.9C71.3 74 71.3 74.1 71.3 74.2C71.3 74.4 71.3 74.7 71.3 74.9L71.3 75C71.3 75.2 71.3 75.4 71.4 75.6C71.5 75.9 71.6 75.9 71.8 75.9C72 75.9 72.2 76 72.3 76.1C72.4 76.2 72.4 76.5 72.2 76.5L72.1 76.5C72.1 76.9 72.1 76.8 72 76.8Z" />
		<path id="Layer" className="shp0" d="M35.2 75.2C35.2 75 35.2 74.8 35.1 74.5C35.1 74.4 35 74.3 35 74.2C35 74 34.9 73.9 34.8 73.7C34.7 73.5 34.5 73.2 34.4 73C34.3 72.8 34.2 72.5 34 72.3C33.9 72.2 33.8 72 33.8 71.9C33.8 71.8 33.8 71.8 33.7 71.7C33.5 71.4 33.5 71.1 33.5 70.8C33.5 70.7 33.5 70.6 33.5 70.4C33.5 70.2 33.5 70 33.5 69.9C33.5 69.8 33.6 69.7 33.6 69.6C33.7 69.5 33.7 69.4 33.8 69.3C33.8 69.2 33.9 69.2 34 69.1C34.2 68.9 34.5 68.7 34.8 68.7C34.9 68.7 35 68.6 35.1 68.6C35.4 68.5 35.7 68.6 35.9 68.6C36.2 68.6 36.4 68.7 36.6 69C36.7 69.1 36.8 69.3 36.9 69.4C37 69.5 37.1 69.6 37.1 69.4C37.2 69.3 37.3 69.1 37.3 69C37.3 68.9 37.4 68.9 37.5 68.8C37.6 68.7 37.7 68.7 37.8 68.8C37.8 68.8 37.8 68.8 37.9 68.9C38 69 38 69 37.9 69.2C37.8 69.3 37.8 69.5 37.7 69.6C37.6 69.8 37.6 70 37.6 70.2C37.6 70.4 37.5 70.5 37.6 70.7C37.6 70.8 37.6 71 37.6 71.1C37.6 71.2 37.5 71.2 37.5 71.2C37.4 71.2 37.4 71.2 37.3 71.2C37.1 71.2 37.1 71.2 37 71C36.9 70.8 36.9 70.6 36.7 70.4C36.5 70.2 36.4 70 36.2 69.9C36 69.8 35.8 69.7 35.6 69.7C35.5 69.7 35.4 69.7 35.3 69.7C35.2 69.7 35.1 69.7 35 69.8C34.7 70 34.6 70.5 34.7 70.7C34.8 70.8 34.9 71 35 71.1L35.1 71.2C35.3 71.5 35.4 71.9 35.7 72.2C35.8 72.3 35.9 72.5 35.9 72.7C36 72.9 36.1 73.1 36.2 73.3C36.3 73.6 36.4 73.8 36.4 74.1C36.4 74.2 36.4 74.3 36.4 74.4C36.4 74.8 36.6 75.3 36.4 75.6C36.3 75.9 36.2 76.2 35.9 76.4C35.8 76.5 35.8 76.5 35.7 76.6C35.5 76.9 35.2 76.9 34.9 77C34.6 77.1 34.2 77 33.9 77C33.6 77 33.3 76.9 33 76.8C33 76.8 32.9 76.8 32.9 76.7C32.7 76.6 32.5 76.4 32.3 76.3C32.2 76.2 32 76.2 31.9 76.1C31.8 76.1 31.7 76.1 31.7 76.2C31.7 76.3 31.6 76.4 31.6 76.5C31.6 76.7 31.4 76.8 31.2 76.7L31.1 76.7C31 76.7 31 76.6 31 76.5C31 76.4 31 76.4 31 76.3C31 76.2 31 76.1 31 76C31 75.8 31 75.6 31 75.4C31 75.3 31 75.2 31.1 75.1C31.2 74.8 31.2 74.4 31.3 74.1C31.3 74 31.4 74 31.5 73.9L31.6 73.9L31.7 74C31.7 74.1 31.8 74.1 31.8 74.2C31.9 74.4 32 74.6 32.1 74.8C32.3 75.2 32.9 75.6 33.3 75.8C33.4 75.8 33.4 75.9 33.5 75.9C33.6 75.9 33.7 76 33.7 76C34 76 34.4 76 34.7 75.9C34.8 75.9 34.8 75.8 34.9 75.7C35.1 75.6 35.2 75.5 35.2 75.2Z" />
		<path id="Layer" className="shp0" d="M46 73.3L46.1 73.3C46.2 73.2 46.3 73 46.5 72.9C46.7 72.7 46.8 72.5 47 72.4C47.1 72.4 47.1 72.3 47.2 72.2C47.4 72 47.6 71.9 47.8 71.7C48 71.5 48.3 71.4 48.6 71.5C48.7 71.5 48.8 71.6 48.9 71.6C49.4 72.2 49 72.8 48.9 73.5C48.9 73.7 48.8 73.9 48.7 74.1C48.7 74.2 48.6 74.3 48.6 74.4C48.6 74.6 48.5 74.8 48.5 75C48.5 75.1 48.4 75.3 48.3 75.4C48.2 75.6 48.1 75.8 48.1 76C48.1 76.1 48.1 76.1 48.1 76.2C48.1 76.3 48.2 76.3 48.2 76.2C48.2 76.2 48.3 76.2 48.3 76.1C48.4 76 48.4 75.9 48.5 75.9L48.6 75.9C48.7 75.8 48.9 75.7 49 75.5C49.1 75.4 49.3 75.3 49.5 75.3L49.6 75.3C49.6 75.3 49.7 75.3 49.7 75.4C49.8 75.5 49.8 75.6 49.8 75.7C49.8 75.7 49.8 75.8 49.7 75.8C49.6 76 49.4 76.2 49.2 76.3C49 76.4 48.9 76.6 48.7 76.7C48.4 77 48 77.2 47.6 77.2C47.3 77.2 47.1 77 47.1 76.8C47 76.6 47.1 76.4 47.1 76.3C47.1 76.1 47.2 75.9 47.2 75.7L47.2 75.6C47.2 75.5 47.3 75.4 47.3 75.2C47.3 75.1 47.4 74.9 47.4 74.8L47.4 74.7C47.5 74.5 47.5 74.3 47.6 74.1C47.6 74 47.7 73.9 47.7 73.9C47.8 73.7 47.9 73.5 47.9 73.3C47.9 73.1 48 73 48.1 72.8L48.1 72.7C48.1 72.7 48.1 72.6 48 72.7C48 72.7 47.9 72.7 47.9 72.8C47.8 72.9 47.6 73 47.4 73.2C47.2 73.4 47.1 73.5 47 73.7C46.9 73.9 46.8 74 46.7 74.1C46.6 74.2 46.5 74.3 46.5 74.4C46.4 74.6 46.3 74.7 46.3 74.9C46.1 75.4 45.8 75.8 45.6 76.2C45.5 76.5 45.3 76.8 45.1 77C45 77.1 44.9 77.1 44.8 77.1C44.7 77.1 44.5 77 44.4 77C44.3 76.9 44.2 76.8 44.2 76.7C44.2 76.6 44.2 76.5 44.3 76.5C44.4 76.3 44.5 76.1 44.5 75.8C44.6 75.5 44.6 75.3 44.7 75C44.7 74.9 44.8 74.8 44.8 74.8C44.9 74.6 44.9 74.4 45 74.2C45 74.1 45.1 74 45.1 73.9C45.2 73.7 45.3 73.4 45.4 73.2C45.4 73.1 45.5 72.9 45.5 72.8C45.5 72.7 45.5 72.7 45.4 72.6C45.3 72.6 45.3 72.6 45.2 72.5C45.1 72.4 45.1 72.4 45.2 72.3C45.2 72.3 45.3 72.2 45.4 72.2C45.5 72.2 45.6 72.1 45.7 72C45.8 72 45.8 72 45.9 71.9C46 71.8 46.2 71.9 46.3 72C46.4 72.1 46.4 72.4 46.3 72.6C46.2 72.8 46.2 73 46.2 73.2C45.9 73 45.9 73.2 46 73.3Z" />
		<path id="Layer" fill-rule="evenodd" className="shp0" d="M58.5 75.1C58.5 75.5 58.7 75.9 58.9 76C59 76.1 59.1 76.1 59.1 76.1C59.3 76.1 59.5 76.1 59.7 76C59.9 75.9 60 75.8 60.1 75.8C60.3 75.7 60.4 75.6 60.5 75.4C60.6 75.3 60.7 75.2 60.8 75.1C60.9 75.1 60.9 75 61 75C61.1 74.9 61.2 74.9 61.3 75L61.4 75.1C61.5 75.2 61.5 75.3 61.4 75.4C61.2 75.7 61 76 60.8 76.2C60.5 76.4 60.3 76.7 59.9 76.8C59.8 76.9 59.6 76.9 59.5 76.9L59.4 76.9C59.2 77 58.9 76.9 58.7 76.9C58.5 76.9 58.3 76.8 58.2 76.7C57.9 76.5 57.7 76.3 57.6 76.1C57.5 76 57.5 75.9 57.5 75.8C57.4 75.6 57.4 75.4 57.4 75.2L57.4 75.1C57.4 74.9 57.4 74.8 57.5 74.6C57.5 74.3 57.6 73.9 57.7 73.6C57.8 73.4 57.9 73.1 58 72.9C58.1 72.8 58.1 72.7 58.2 72.5C58.2 72.4 58.3 72.3 58.4 72.3C58.5 72.2 58.6 72.1 58.6 71.9C58.9 71.5 59.3 71.2 59.7 71.1C59.8 71.1 60 71.1 60.1 71.1C60.4 71.2 60.8 71.4 61 71.6C61.1 71.7 61.2 71.9 61.3 72.1C61.4 72.2 61.3 72.4 61.3 72.6L61.3 72.7C61.2 72.9 61.1 73.1 61 73.3C60.9 73.4 60.8 73.6 60.6 73.7C60.5 73.8 60.4 73.9 60.2 74C60.1 74.1 60 74.1 59.8 74.1C59.5 74.2 59.3 74.2 59 74.2C58.5 74.4 58.4 74.8 58.5 75.1ZM60.6 72.4C60.6 72.3 60.5 72.1 60.4 72C60.3 71.9 60.2 71.9 60 71.8L59.9 71.8C59.8 71.8 59.7 71.9 59.6 72C59.5 72.1 59.5 72.2 59.4 72.3C59.2 72.7 59 73.1 58.8 73.6C58.7 73.8 58.8 73.9 59 73.9C59 73.9 59.1 73.9 59.2 73.9C59.5 73.8 59.9 73.7 60.1 73.5C60.2 73.4 60.3 73.3 60.4 73.2C60.5 72.9 60.6 72.7 60.6 72.4Z" />
		<path id="Layer" className="shp0" d="M52.8 74.9C52.8 75.1 52.8 75.3 52.9 75.4C52.9 75.5 53 75.6 53.1 75.6L53.2 75.6C53.3 75.6 53.4 75.6 53.5 75.5C53.8 75.3 54 75.2 54.2 74.9L54.3 74.8C54.4 74.8 54.5 74.8 54.6 74.8C54.7 74.8 54.8 74.9 54.7 75C54.7 75.1 54.6 75.1 54.6 75.2C54.5 75.4 54.4 75.7 54.2 75.9C54.1 76 54.1 76.2 53.9 76.2L53.8 76.3C53.6 76.4 53.3 76.6 53 76.7C52.8 76.7 52.7 76.7 52.5 76.7C52.4 76.7 52.4 76.7 52.3 76.7C52.2 76.7 52 76.6 51.9 76.5C51.7 76.4 51.6 76.2 51.5 76.1C51.4 76 51.3 75.8 51.4 75.6C51.4 75.5 51.4 75.4 51.4 75.3C51.4 75.2 51.4 75 51.4 74.9C51.4 74.6 51.5 74.2 51.5 73.9C51.5 73.7 51.6 73.5 51.7 73.4C51.8 73.3 51.8 73.1 51.9 73C51.9 73 51.9 72.9 52 72.9C52.2 72.7 52.3 72.5 52.5 72.3C52.9 71.9 53.4 71.4 53.9 71.3C54.2 71.3 54.4 71.3 54.6 71.4L54.7 71.4C54.9 71.4 55.1 71.5 55.2 71.6C55.2 71.6 55.3 71.6 55.3 71.7C55.4 71.9 55.5 72.1 55.3 72.2C55.2 72.3 55.1 72.3 55 72.2C54.9 72.2 54.8 72.1 54.8 72.1C54.7 72.1 54.7 72 54.6 72C54.4 71.9 54.1 71.9 53.9 72.1C53.7 72.3 53.5 72.4 53.4 72.6C53.3 72.8 53.2 72.9 53.1 73.1C53.1 73.1 53.1 73.2 53 73.2C52.9 73.3 52.8 73.5 52.8 73.6C52.9 74.2 52.9 74.5 52.8 74.9Z" />
		<path id="Layer" className="shp0" d="M40.3 76.1C40.5 76 40.6 75.9 40.7 75.8C40.8 75.6 41 75.5 41.1 75.4C41.3 75.3 41.5 75.2 41.7 75.2C42.3 75.3 41.5 76.1 41.4 76.2C41.1 76.4 40.9 76.6 40.6 76.8C40.4 77 40 77 39.7 77C39.3 76.9 39.2 76.6 39.2 76.2C39.2 76.1 39.2 76 39.3 75.8C39.3 75.6 39.4 75.4 39.5 75.3C39.6 75.1 39.7 74.8 39.8 74.5C40 74 40.3 73.4 40.5 72.8C40.5 72.7 40.5 72.6 40.6 72.5C40.6 72.4 40.6 72.4 40.5 72.4C40.1 72.1 41.1 71.7 41.3 71.6C41.4 71.6 41.5 71.6 41.6 71.6C41.7 71.6 41.7 71.6 41.7 71.7C41.7 71.9 41.7 72 41.7 72.2C41.7 72.4 41.6 72.6 41.5 72.8C41.4 73 41.3 73.2 41.3 73.4C41.2 73.7 41.1 74 40.9 74.3C40.8 74.5 40.8 74.7 40.7 74.8C40.7 74.9 40.6 75 40.6 75.1C40.6 75.2 40.5 75.4 40.4 75.5C40.4 75.6 40.4 75.6 40.3 75.7C40.3 75.7 40.3 75.9 40.3 76.1Z" />
		<path id="Layer" className="shp0" d="M41 69.2C41 68.9 41 68.6 41.4 68.5C41.5 68.5 41.7 68.4 41.8 68.4C41.9 68.4 42.1 68.4 42.2 68.4C42.3 68.4 42.4 68.5 42.5 68.6C42.5 68.6 42.5 68.6 42.5 68.7C42.8 69.1 42.4 69.9 41.9 69.9C41.8 69.9 41.6 69.8 41.5 69.8L41.4 69.8C41.3 69.8 41.2 69.7 41.1 69.6C41 69.4 41 69.3 41 69.2Z" />
		<path id="Layer" fill-rule="evenodd" className="shp0" d="M104.6 62.7C104 62.7 103.4 62.7 102.9 62.7C102.8 62.7 102.8 62.7 102.7 62.6C102.7 62.5 102.6 62.4 102.6 62.3C102 61.2 101.4 60.2 101 59.1C100.9 58.9 100.8 58.6 100.7 58.4C100.6 58.3 100.6 58.2 100.6 58.1C100.5 57.9 100.5 57.8 100.4 57.6C100.1 57.2 100 56.7 99.8 56.2C99.6 55.8 99.4 55.4 99.2 55C99.2 54.9 99.1 54.9 99 54.9C98.8 54.9 98.5 54.9 98.3 54.9C98.1 54.9 97.9 54.9 97.7 54.9C97.5 54.9 97.2 54.9 97 54.9C96.2 54.9 95.3 54.9 94.5 54.9C94.3 54.9 94.1 54.9 94 54.9C93.6 54.9 93.1 54.9 92.7 54.8C92.6 54.8 92.5 54.8 92.3 54.8L92.2 54.9C92.2 55.1 92.2 55.2 92.1 55.4C92.1 55.5 92.1 55.6 92.1 55.7C92.1 55.8 92.1 56 92.1 56.1C92.1 56.2 92.1 56.3 92.1 56.4C92.1 56.5 92.1 56.6 92.1 56.7C92.1 57.2 92.1 57.6 92.1 58.1C92.1 58.3 92.1 58.5 92.1 58.7C92.1 59 92.1 59.3 92.1 59.5C92.1 59.8 92.1 60.2 92.1 60.5C92.1 60.8 92.1 61.2 92.1 61.5C92.1 61.7 92.1 61.9 92.1 62.1C92.1 62.2 92.1 62.2 92.1 62.3C92.1 62.4 92.1 62.5 91.9 62.6C91.7 62.7 91.4 62.7 91.1 62.7C90.8 62.7 90.6 62.7 90.3 62.7C90.1 62.7 89.8 62.7 89.6 62.7C89.5 62.7 89.4 62.7 89.3 62.7C89.2 62.7 89.1 62.7 89.1 62.5C89.1 62.1 89 61.6 89 61.2C89 59.7 89 58.2 89 56.6C89 56.2 89 55.8 89 55.4C89 55 89.1 54.7 89.1 54.3C89.1 54.1 89.1 53.8 89.1 53.6C89.1 53.4 89.1 53.3 89.1 53.1C89.1 52.6 89.1 52.2 89.1 51.7C89.1 51.5 89.1 51.2 89.1 51C89.1 50.8 89.1 50.6 89.1 50.4C89.1 50.2 89.1 50 89.1 49.7C89.1 49.6 89.1 49.5 89.1 49.3C89.1 48.7 89.1 48.1 89.1 47.4C89.1 47.3 89.1 47.2 89.1 47.1C89.1 46.7 89 46.3 89 45.9C89 45.5 89 45.1 89 44.7C89 44.3 89 43.9 89 43.6C89 43.5 89 43.5 89.1 43.5C89.3 43.5 89.6 43.5 89.8 43.5C90.1 43.5 90.4 43.5 90.7 43.5C91.3 43.5 92 43.5 92.6 43.5C93.2 43.5 93.7 43.5 94.3 43.5C94.6 43.5 94.8 43.5 95.1 43.5C95.5 43.5 96 43.4 96.4 43.4C97.2 43.4 97.9 43.4 98.7 43.4C98.9 43.4 99.1 43.4 99.3 43.4C99.4 43.4 99.5 43.4 99.6 43.4C100 43.5 100.5 43.5 100.9 43.5C101.9 43.6 102.9 44 103.9 44.4C104 44.4 104 44.5 104.1 44.5C104.5 44.7 104.8 45 105 45.4C105.1 45.5 105.1 45.6 105.2 45.7C105.4 46 105.6 46.3 105.8 46.7C106 47.1 106.2 47.5 106.3 48C106.4 48.5 106.4 49 106.4 49.5C106.4 49.9 106.4 50.4 106.3 50.8C106 51.7 105.6 52.5 105 53.2C104.5 53.9 103.6 54.2 102.9 54.5C102.8 54.6 102.7 54.6 102.5 54.6C102.3 54.6 102.2 54.8 102.3 55C102.3 55.2 102.4 55.4 102.5 55.7C102.6 55.9 102.7 56.1 102.9 56.4C102.9 56.4 102.9 56.5 103 56.5C103.6 57.6 104.1 58.8 104.7 60C105.1 60.8 105.3 61.7 105.7 62.4C105.8 62.5 105.7 62.7 105.6 62.8C105.6 62.8 105.5 62.8 105.4 62.8C105 62.7 104.8 62.7 104.6 62.7ZM94.3 46.4C93.7 46.4 93 46.4 92.4 46.4C92.3 46.4 92.3 46.4 92.2 46.4C92.1 46.4 92 46.5 92 46.6C92 46.8 92 46.9 92 47.1C92 47.6 92 48 92 48.5C92 49.4 92.1 50.2 92 51.1C92 51.3 92.1 51.5 92.1 51.7C92.1 51.8 92.2 51.8 92.3 51.8L92.4 51.8C94 52 95.7 51.9 97.3 51.9C97.4 51.9 97.6 51.9 97.7 51.9C97.8 51.9 98 51.9 98.1 51.9C98.3 51.9 98.4 51.9 98.6 51.9C98.8 51.9 99 51.9 99.2 51.9C99.4 51.9 99.5 51.9 99.7 51.9C100.1 51.8 100.6 51.8 101 51.8C101.2 51.8 101.4 51.8 101.6 51.7C101.7 51.6 101.9 51.6 102 51.5C102.2 51.4 102.4 51.3 102.5 51.2C102.8 50.9 102.9 50.4 103 49.9C103 49.6 103.1 49.4 103 49.1C103 48.9 103 48.8 102.9 48.6C102.8 48.5 102.8 48.3 102.7 48.2C102.5 47.9 102.3 47.7 102.1 47.5C101.9 47.4 101.8 47.3 101.6 47.1C101.5 47 101.4 47 101.3 47C99.6 46.5 97.8 46.5 96 46.5C95.5 46.4 94.9 46.4 94.3 46.4Z" />
		<path id="Layer" fill-rule="evenodd" className="shp0" d="M69.2 43.9C69.6 43.9 69.9 43.9 70.3 43.9C70.5 43.9 70.7 43.9 71 43.9C71.1 43.9 71.2 43.9 71.3 43.9C71.5 43.9 71.6 43.9 71.8 43.9C72.5 43.8 73.2 43.9 73.9 43.9C74.7 43.9 75.5 43.9 76.3 43.9C76.5 43.9 76.6 43.9 76.8 43.9C77.5 43.9 78.2 43.9 78.8 44C79.1 44 79.5 44.1 79.8 44.2C80.1 44.3 80.4 44.4 80.7 44.6C81 44.8 81.3 44.9 81.6 45.2C82.2 45.7 82.6 46.4 82.8 47.2C82.9 47.8 83 48.4 83.1 49C83.1 49.6 83.1 50.1 83 50.7C82.9 51.3 82.9 51.8 82.7 52.3C82.6 52.7 82.3 53.1 82.1 53.4C81.9 53.6 81.7 53.8 81.5 54C81.3 54.1 81.1 54.3 80.9 54.4C80.7 54.5 80.6 54.6 80.4 54.6C80.3 54.6 80.2 54.7 80.1 54.7C79.9 54.7 79.6 54.8 79.4 54.8C79.3 54.8 79.3 54.8 79.3 54.9C79.4 55.1 79.5 55.3 79.5 55.5C79.5 55.6 79.5 55.6 79.6 55.7C79.6 55.8 79.7 55.8 79.7 55.9C79.9 56.2 80 56.6 80.1 56.9C80.3 57.3 80.5 57.7 80.7 58.2C80.9 58.7 81.1 59.1 81.4 59.6C81.6 60 81.8 60.5 82 60.9L82.2 61.1C82.3 61.4 82.5 61.7 82.6 62C82.7 62.2 82.8 62.3 82.8 62.5C82.8 62.5 82.8 62.6 82.9 62.6L82.9 62.7C82.8 62.7 82.8 62.8 82.7 62.8C82.3 62.8 81.8 62.9 81.3 62.9C81.2 62.9 81.2 62.9 81.1 62.9C80.9 62.9 80.6 62.9 80.4 62.9C80.2 62.9 80 62.9 79.7 62.9C79.6 62.9 79.5 62.9 79.5 62.8C79.4 62.6 79.3 62.4 79.2 62.1C79.2 62.1 79.2 62 79.1 62C78.9 61.7 78.7 61.4 78.6 61.1C78.5 60.8 78.3 60.6 78.3 60.3C77.8 59 77.2 57.7 76.5 56.5C76.3 56.1 76.1 55.7 75.9 55.3C75.8 55.1 75.7 55 75.5 55C75.2 55 74.9 54.9 74.6 54.9C73.9 54.9 73.1 54.8 72.4 54.8C72.2 54.8 72 54.8 71.9 54.8C71.4 54.8 70.9 54.8 70.4 54.8C70.3 54.8 70.3 54.8 70.2 54.8C69.9 54.8 69.6 54.8 69.3 54.8C69.2 54.8 69.2 54.8 69.1 54.8C69 54.8 68.9 54.8 68.9 55C68.8 55.2 68.8 55.4 68.8 55.5C68.8 55.8 68.8 56.2 68.8 56.5C68.8 56.8 68.8 57.1 68.7 57.3C68.7 57.5 68.7 57.6 68.7 57.8C68.7 58.8 68.7 59.8 68.7 60.9C68.7 61.2 68.7 61.6 68.7 61.9C68.7 62.1 68.7 62.3 68.6 62.5C68.6 62.6 68.6 62.6 68.5 62.6C68.4 62.6 68.3 62.7 68.1 62.7C67.9 62.7 67.8 62.7 67.6 62.7C67.1 62.7 66.5 62.7 66 62.7L65.9 62.7C65.8 62.7 65.7 62.7 65.7 62.5C65.7 62.2 65.7 62 65.7 61.7C65.7 61.4 65.7 61.1 65.7 60.8C65.7 60.5 65.7 60.1 65.7 59.8C65.7 59.2 65.7 58.6 65.7 57.9C65.7 57.7 65.7 57.6 65.7 57.4C65.7 57.2 65.7 57 65.7 56.8C65.7 56.7 65.7 56.6 65.7 56.4C65.7 56.2 65.7 56 65.7 55.8C65.7 55.3 65.7 54.7 65.7 54.2C65.7 54.1 65.7 53.9 65.7 53.8C65.7 53.5 65.7 53.2 65.7 53C65.7 52.8 65.7 52.7 65.7 52.5C65.6 51.7 65.6 50.9 65.6 50.1C65.6 49.6 65.6 49.2 65.6 48.7C65.6 48.5 65.6 48.4 65.6 48.2C65.6 48 65.6 47.7 65.6 47.5C65.6 47.2 65.6 46.9 65.7 46.7C65.7 46.4 65.7 46 65.7 45.7C65.7 45.4 65.7 45.2 65.7 44.9C65.7 44.8 65.7 44.7 65.7 44.6C65.7 44.5 65.7 44.4 65.7 44.4C65.7 44.3 65.7 44.2 65.8 44.2C65.9 44.2 66 44.1 66 44.1C66.2 44.1 66.3 44.1 66.5 44.1C66.7 44.1 66.9 44.1 67.1 44C67.4 44 67.8 43.9 68.1 43.9C68.6 43.9 68.9 43.9 69.2 43.9ZM69.9 46.4C69.7 46.4 69.5 46.4 69.4 46.4C69.3 46.4 69.2 46.4 69 46.4C68.9 46.4 68.9 46.4 68.9 46.5C68.9 46.6 68.9 46.6 68.9 46.7C68.9 46.9 68.9 47.1 68.9 47.3C68.9 47.6 68.9 47.8 68.9 48.1C68.9 48.4 68.9 48.8 68.9 49.1C68.9 49.4 68.9 49.8 68.9 50.1C68.9 50.4 68.9 50.7 68.9 51C68.9 51.3 68.8 51.6 68.9 51.8C68.9 51.8 68.9 51.9 69 51.9C69.2 51.9 69.3 52 69.5 52C69.7 52 70 52 70.2 52C70.7 52 71.1 52 71.6 52C71.9 52 72.1 52 72.4 52C73 52 73.6 52 74.2 52C74.8 52 75.3 52 75.9 52C76.1 52 76.3 52 76.5 52C76.7 52 77 52 77.2 52C77.3 52 77.4 52 77.6 51.9C78 51.8 78.5 51.7 78.9 51.6C79 51.6 79.1 51.5 79.2 51.5C79.3 51.5 79.3 51.4 79.4 51.4C79.5 51.3 79.7 51.3 79.8 51.1C80 50.9 80.2 50.5 80.3 50.2C80.4 49.9 80.4 49.5 80.4 49.1C80.4 48.9 80.4 48.8 80.3 48.6C80.3 48.6 80.3 48.5 80.3 48.4C80.3 48.3 80.3 48.2 80.2 48.2C80.1 48 80 47.9 80 47.8C80 47.8 80 47.7 79.9 47.7C79.5 47.3 79 47 78.4 46.8C77.8 46.6 77.2 46.6 76.6 46.5C76.2 46.5 75.9 46.4 75.5 46.4C75.3 46.4 75.1 46.3 74.8 46.3C74.3 46.3 73.8 46.3 73.2 46.2C72.7 46.2 72.2 46.2 71.6 46.2C71.3 46.2 70.9 46.2 70.6 46.2C70.3 46.4 70.1 46.4 69.9 46.4Z" />
		<path id="Layer" className="shp0" d="M10.4 43C10.7 43 11.1 43 11.4 43.1C11.7 43.1 12.1 43.2 12.4 43.3C12.6 43.3 12.7 43.4 12.9 43.4C13.3 43.5 13.6 43.6 13.9 43.7C14 43.7 14 43.7 14.1 43.8C14.3 43.9 14.4 43.9 14.5 44C14.6 44.1 14.8 44.2 14.9 44.2C15.1 44.3 15.3 44.4 15.5 44.5C15.5 44.5 15.6 44.5 15.6 44.6C15.9 44.8 16.2 45 16.5 45.2C16.6 45.3 16.7 45.3 16.8 45.4C16.9 45.5 17 45.6 17.1 45.6C17.3 45.7 17.4 45.9 17.5 46C17.5 46.1 17.6 46.1 17.6 46.2C17.7 46.3 17.7 46.4 17.6 46.5C17.6 46.6 17.5 46.7 17.5 46.8C17.4 47 17.3 47.2 17.1 47.4C17 47.6 16.8 47.7 16.7 47.8C16.6 47.9 16.5 48 16.4 48.1C16.4 48.1 16.4 48.1 16.3 48.2C16.1 48.3 15.8 48.1 15.6 48C15.1 47.7 14.7 47.3 14.2 47.1C14 47 13.9 46.9 13.7 46.8C13.7 46.8 13.6 46.8 13.6 46.7C13.2 46.6 12.8 46.4 12.3 46.3C12 46.2 11.8 46.2 11.5 46.1C11.4 46.1 11.2 46 11 46C10.8 46 10.6 46 10.4 45.9C10.3 45.9 10.2 45.9 10 45.9C9.6 45.9 9.1 45.9 8.7 46C8.4 46 8.1 46.1 7.9 46.1C7.6 46.1 7.4 46.2 7.1 46.3C6.9 46.4 6.7 46.5 6.4 46.6C6.2 46.7 6.1 46.9 5.9 47C5.8 47 5.8 47.1 5.7 47.2C5.4 47.5 5.1 47.7 4.9 48.1C4.8 48.4 4.7 48.7 4.7 49C4.7 49.1 4.7 49.3 4.7 49.4C4.8 50.6 6.3 50.8 7.2 50.8C7.6 50.8 8 50.9 8.4 50.9C8.5 50.9 8.5 50.9 8.6 50.9C8.8 50.9 9 50.9 9.2 50.9C9.4 50.9 9.6 50.9 9.7 50.9C9.9 50.9 10.1 50.9 10.3 50.9C10.8 50.9 11.2 51 11.7 51C12.1 51 12.6 51 13 51.1C13.2 51.1 13.3 51.2 13.5 51.2C14.1 51.3 14.7 51.6 15.3 51.8C15.5 51.9 15.7 52 15.9 52C16.1 52.1 16.2 52.2 16.4 52.3C16.7 52.5 16.9 52.7 17.1 52.9C17.3 53.1 17.5 53.4 17.7 53.6C17.9 53.8 18.1 54 18.2 54.3C18.7 55.2 18.8 56.3 18.7 57.3C18.7 57.7 18.6 58 18.6 58.4C18.5 58.8 18.3 59.2 18.1 59.6C17.9 59.9 17.8 60.1 17.6 60.3C17.4 60.5 17.2 60.7 17 60.9C16.8 61.1 16.6 61.2 16.4 61.3C16.2 61.4 16 61.5 15.9 61.6C15.8 61.6 15.8 61.7 15.7 61.7C15.6 61.8 15.4 61.8 15.3 61.9C14.6 62.2 13.8 62.5 13 62.6C12.8 62.6 12.7 62.7 12.5 62.7C12.3 62.7 12 62.8 11.8 62.8C11.6 62.8 11.4 62.8 11.2 62.8C10.8 62.8 10.4 62.8 10 62.7C9.9 62.7 9.7 62.7 9.6 62.7C9.3 62.7 8.9 62.7 8.6 62.7L8.5 62.7C8.3 62.7 8.1 62.7 7.9 62.6C7.6 62.6 7.4 62.5 7.1 62.5C6.9 62.5 6.8 62.4 6.6 62.4C6.4 62.3 6.2 62.3 6.1 62.3C6 62.3 5.9 62.2 5.8 62.2C5.3 62.1 4.9 61.9 4.4 61.7C4.3 61.7 4.3 61.7 4.2 61.6C4.1 61.6 4.1 61.6 4 61.5C3.8 61.3 3.5 61.2 3.3 61.1C3.1 60.9 2.8 60.8 2.6 60.6C2.5 60.5 2.4 60.4 2.3 60.3C2.2 60.2 2.1 60.1 2 60.1C1.9 60.1 1.9 60 1.8 60C1.7 59.9 1.6 59.8 1.5 59.7C1.4 59.5 1.2 59.4 1.1 59.2C1 59.1 0.9 58.9 0.8 58.7C0.7 58.6 0.8 58.4 0.9 58.3C1.1 58.1 1.3 58 1.4 57.8C1.5 57.7 1.7 57.5 1.8 57.4C1.9 57.3 2.1 57.1 2.2 57L2.3 56.9C2.4 56.9 2.4 56.9 2.5 56.9C2.5 56.9 2.5 56.9 2.6 57C2.9 57.2 3.1 57.5 3.4 57.7C3.5 57.8 3.6 57.8 3.7 57.9C3.8 58 3.9 58 4 58.1C4 58.1 4.1 58.1 4.1 58.2C4.3 58.3 4.5 58.4 4.7 58.5C5 58.6 5.2 58.8 5.5 58.9C5.7 59 5.8 59 6 59.1C6.5 59.3 7.1 59.5 7.6 59.6C7.8 59.7 8.1 59.7 8.3 59.7C8.5 59.7 8.6 59.7 8.8 59.8C9.1 59.9 9.3 59.9 9.6 59.9C10.1 59.9 10.6 59.9 11.1 59.9C11.4 59.9 11.6 59.9 11.9 59.8C12 59.8 12.1 59.7 12.3 59.7C12.7 59.6 13 59.5 13.3 59.4C13.4 59.4 13.5 59.3 13.6 59.3C13.8 59.2 14.1 59.1 14.3 59C14.5 58.9 14.7 58.8 15 58.7C15.3 58.6 15.6 58.4 15.8 58.1C15.9 58 16 57.9 16 57.8C17.1 56.5 15.9 54.9 14.6 54.4C14.4 54.3 14.1 54.2 13.9 54.1C13.3 53.8 12.6 53.8 12 53.7C10.9 53.6 9.8 53.6 8.7 53.6C8.2 53.6 7.8 53.6 7.3 53.5C7.1 53.5 6.9 53.5 6.6 53.4C6.4 53.4 6.1 53.3 5.9 53.3C5.7 53.3 5.4 53.2 5.2 53.1C5 53 4.8 52.9 4.6 52.9C4.1 52.7 3.7 52.3 3.3 51.9C3 51.5 2.6 51.2 2.3 50.8C2.3 50.7 2.2 50.6 2.2 50.6C2.1 50.3 2.1 50 2 49.7C1.9 49.4 1.9 49.1 1.9 48.8C2 48 2.3 47.3 2.7 46.5C3.1 45.8 3.6 45.1 4.2 44.5C4.4 44.3 4.5 44.2 4.7 44C4.8 43.9 5 43.8 5.2 43.7C5.8 43.4 6.3 43.2 6.9 43C7.1 42.9 7.4 42.9 7.6 42.8C7.7 42.8 7.9 42.7 8 42.7C9 43.1 9.7 43 10.4 43Z" />
		<path id="Layer" className="shp0" d="M47.8 43.7C48.1 43.7 48.4 43.7 48.6 43.7C48.9 43.7 49.2 43.7 49.5 43.7C49.7 43.7 50 43.7 50.2 43.7C50.7 43.7 51.1 43.7 51.6 43.7C51.8 43.7 52.1 43.7 52.3 43.7C52.5 43.7 52.7 43.7 52.9 43.7C53 43.7 53 43.7 53.1 43.7C53.4 43.7 53.6 43.7 53.9 43.7C55.6 43.7 57.3 43.6 59 43.7C59.1 43.7 59.1 43.7 59.2 43.7C59.3 43.7 59.4 43.7 59.6 43.7C59.8 43.7 59.8 43.8 59.9 44C60 44.8 60.1 45.5 59.9 46.3C59.9 46.4 59.8 46.5 59.7 46.5C59.5 46.6 59.3 46.6 59.1 46.6C58.8 46.6 58.4 46.6 58.1 46.6C57.8 46.6 57.6 46.6 57.3 46.6C56.3 46.5 55.2 46.6 54.2 46.5C53.2 46.4 52.2 46.5 51.3 46.5C50.4 46.5 49.4 46.6 48.5 46.6C48.4 46.6 48.3 46.6 48.2 46.6C48.1 46.6 48.1 46.6 48 46.6C47.7 46.6 47.8 47.1 47.8 47.3C47.8 47.7 47.8 48.2 47.8 48.6C47.8 48.8 47.8 49.1 47.8 49.3C47.8 49.4 47.8 49.5 47.8 49.6C47.8 49.9 47.8 50.2 47.8 50.5C47.8 50.8 47.8 51 47.8 51.3L47.8 51.4C47.8 51.5 47.8 51.6 48 51.6C48.2 51.6 48.4 51.6 48.5 51.6C48.7 51.6 48.8 51.6 49 51.6C49.5 51.7 50.2 51.7 50.7 51.7C51.4 51.7 52.1 51.7 52.8 51.7C52.9 51.7 53 51.7 53.1 51.7C53.3 51.7 53.6 51.7 53.8 51.7C53.9 51.7 54 51.7 54 51.7C54.1 51.7 54.1 51.7 54.1 51.8C54.1 51.9 54.1 51.9 54.1 52C54 52.4 54.1 52.7 54.1 53.1C54.1 53.5 54 54 53.9 54.4C53.9 54.5 53.8 54.5 53.7 54.5C53.5 54.5 53.4 54.5 53.2 54.5C52.8 54.5 52.4 54.5 52.1 54.4L52 54.4C51.7 54.4 51.4 54.4 51.1 54.4C51 54.4 50.8 54.4 50.7 54.4C50.4 54.4 50.1 54.4 49.8 54.4C49.3 54.4 48.8 54.4 48.4 54.4L48.3 54.4C48.1 54.4 48 54.5 48 54.6C48 54.9 47.9 55.1 48 55.4C48 55.7 47.9 55.9 47.9 56.2C47.9 56.5 47.9 56.8 47.9 57.1C47.9 58 47.9 58.8 47.9 59.7C47.9 59.9 48 60 48.2 60C48.5 60 48.9 60.1 49.2 60.1C49.4 60.1 49.6 60.1 49.8 60.1C49.9 60.1 50.1 60.1 50.2 60.1C50.6 60.1 50.9 60.1 51.3 60.1C51.5 60.1 51.7 60.1 52 60.1C52.3 60.1 52.7 60.1 53 60.1C53.2 60.1 53.4 60.1 53.6 60.1C53.7 60.1 53.8 60.1 53.8 60.1C54.2 60.1 54.6 60.1 55 60.1C55.4 60.1 55.8 60.1 56.2 60.1C56.5 60.1 56.8 60.1 57.1 60.1C57.6 60.1 58.1 60.1 58.6 60.1C58.7 60.1 58.8 60.1 58.9 60.1C59.1 60.1 59.3 60.1 59.5 60.1C59.7 60.1 59.8 60.1 60 60.1C60.2 60.1 60.3 60.1 60.5 60.2L60.6 60.2C60.8 60.2 60.9 60.4 61 60.6C61 60.7 61.1 60.9 61.1 61.1C61.1 61.4 61.1 61.7 61.1 62.1L61.1 62.2C61.1 62.3 61.1 62.4 61.1 62.5C61.1 62.7 61.1 62.7 60.9 62.8L60.8 62.8C60.5 62.8 60.3 62.8 60 62.8C59.8 62.8 59.7 62.8 59.5 62.8C59.3 62.8 59 62.8 58.8 62.8L58.8 62.8C58.6 62.9 58.3 62.8 58.1 62.8C56 62.9 53.9 62.8 51.8 62.6C50.8 62.5 49.8 62.5 48.8 62.5C48.3 62.5 47.8 62.5 47.3 62.5C46.8 62.5 46.4 62.6 45.9 62.5L45.8 62.5C45.6 62.5 45.5 62.4 45.4 62.2C45.4 62.1 45.4 62 45.4 61.9C45.3 60.1 45.3 58.3 45.3 56.5C45.3 54.3 45.2 52.1 45.2 49.8C45.2 49.2 45.2 48.6 45.2 48C45.2 47.6 45.2 47.2 45.2 46.7C45.2 46.2 45.2 45.7 45.2 45.2C45.2 44.7 45.1 44.2 45.2 43.8L45.3 43.7C45.5 43.7 45.6 43.6 45.8 43.6C45.9 43.6 46 43.6 46.1 43.6C46.4 43.6 46.7 43.6 46.9 43.5C46.9 43.7 47.3 43.7 47.8 43.7Z" />
		<path id="Layer" fill-rule="evenodd" className="shp0" d="M30.6 55.1C29.7 55.1 28.8 55.1 28 55.1C27.8 55.1 27.5 55.1 27.3 55.1C27.2 55.1 27.2 55.1 27.1 55.1L27 55.1C26.8 55.1 26.9 55.2 26.9 55.3C26.9 55.8 26.8 56.3 26.8 56.8C26.8 57.6 26.8 58.4 26.8 59.3C26.8 59.9 26.8 60.5 26.8 61.1C26.8 61.3 26.8 61.4 26.8 61.6C26.8 61.9 26.8 62.2 26.8 62.5L26.8 62.6C26.8 62.8 26.7 62.8 26.6 62.8C26.3 62.8 26 62.8 25.6 62.8C25.1 62.8 24.7 62.8 24.2 62.8C24 62.8 23.8 62.6 23.8 62.3C23.8 62.1 23.8 62 23.8 61.8C23.8 61.6 23.8 61.5 23.8 61.3C23.8 60.2 23.8 59.1 23.8 58C23.8 57.7 23.8 57.5 23.8 57.2C23.8 56.8 23.8 56.4 23.8 56C23.8 55.8 23.8 55.6 23.8 55.4C23.8 54.9 23.8 54.5 23.8 54C23.8 53.7 23.8 53.4 23.8 53.1C23.8 52.8 23.8 52.6 23.8 52.3C23.8 52 23.8 51.6 23.8 51.3C23.8 51 23.8 50.6 23.8 50.3C23.8 50.2 23.8 50.1 23.8 50C23.8 49.8 23.8 49.5 23.8 49.3C23.8 49.1 23.8 48.9 23.8 48.7C23.8 48.6 23.8 48.5 23.8 48.4C23.8 47.9 23.8 47.3 23.8 46.8C23.8 46.3 23.8 45.9 23.9 45.4C23.9 45.3 23.9 45.1 23.9 45C23.9 44.8 23.9 44.6 24 44.3C24 44.3 24 44.2 24.1 44.2C24.2 44.2 24.3 44.2 24.3 44.2C24.5 44.2 24.6 44.2 24.8 44.1C24.9 44.1 25 44.1 25.1 44.1C25.4 44.1 25.7 44 26 44C26.1 44 26.3 44 26.4 44C26.8 44 27.1 43.9 27.5 43.9C28.1 43.8 28.7 43.8 29.3 43.9C29.9 43.9 30.5 43.9 31.1 43.9C31.2 43.9 31.2 43.9 31.3 43.9C32 43.9 32.7 43.9 33.4 43.9C33.5 43.9 33.6 43.9 33.7 43.9C34 43.9 34.2 43.9 34.5 43.9C35.3 44 36.1 44.1 36.9 44.2C37.1 44.2 37.4 44.3 37.6 44.4C37.7 44.4 37.8 44.5 38 44.6C38.2 44.7 38.3 44.8 38.5 44.9C38.8 45.1 39 45.3 39.2 45.6C39.2 45.7 39.3 45.7 39.4 45.8C39.5 46 39.7 46.2 39.8 46.4C39.9 46.6 40 46.8 40.1 47C40.4 47.6 40.4 48.3 40.5 48.9C40.6 49.5 40.6 50.1 40.4 50.7C40.3 51.1 40.1 51.4 40 51.7C39.9 52 39.8 52.2 39.6 52.5C39.5 52.8 39.3 53 39.1 53.3C38.9 53.6 38.7 53.8 38.5 54C38.3 54.2 38 54.3 37.7 54.5C37.2 54.8 36.5 54.9 36 55.1C35.5 55.2 34.9 55.4 34.3 55.4C34.1 55.1 32.5 55.1 32.5 55.1C31.9 55.1 31.2 55.1 30.6 55.1ZM26.7 51C26.7 51.3 26.7 51.7 26.8 52C26.8 52.2 26.8 52.2 27 52.2C27 52.2 27 52.2 27.1 52.2C27.6 52.2 28.1 52.1 28.6 52.1C28.7 52.1 28.8 52.1 29 52.1C29.5 52.1 30 52.1 30.5 52.1C31 52.1 31.4 52.1 31.9 52.1C32.3 52.1 32.8 52.1 33.2 52.1C33.3 52.1 33.5 52.1 33.6 52.1C33.8 52.1 33.9 52.1 34.1 52.1C34.2 52.1 34.4 52.1 34.5 52.1C34.7 52.1 34.9 52 35.1 52C35.4 52 35.7 51.9 36 51.9C36.3 51.8 36.5 51.8 36.7 51.6C37 51.4 37.2 51.2 37.4 50.9C37.6 50.7 37.7 50.4 37.7 50.2C37.8 49.9 37.8 49.6 37.8 49.3C37.7 48.9 37.7 48.6 37.5 48.2C37.4 48 37.4 47.9 37.3 47.7C36.9 46.9 35.8 46.8 35 46.7C34.6 46.7 34.1 46.7 33.7 46.7C33.6 46.7 33.4 46.7 33.3 46.7C32.9 46.7 32.6 46.7 32.2 46.7C31.9 46.7 31.6 46.7 31.3 46.7C31 46.7 30.6 46.7 30.3 46.8C30.1 46.8 29.9 46.8 29.7 46.8C29.4 46.8 29.1 46.8 28.8 46.8C28.6 46.8 28.4 46.8 28.2 46.8C28.1 46.8 28 46.8 28 46.8C27.8 46.8 27.6 46.8 27.4 46.9C27 46.9 27 46.9 27 47.3C27 48.1 26.9 48.9 26.9 49.6C26.7 50.1 26.7 50.6 26.7 51Z" />
		<path id="Layer" className="shp0" d="M117.7 62.8C117.4 62.8 117.1 62.8 116.8 62.8C116.7 62.8 116.6 62.8 116.5 62.6C116.4 62.2 116.5 61.8 116.5 61.3C116.5 61.2 116.5 61.1 116.5 61C116.5 60.9 116.5 60.8 116.5 60.7C116.3 58.7 116.6 56.8 116.4 54.8C116.4 54.6 116.4 54.4 116.4 54.3C116.4 54.2 116.4 54.1 116.3 54C115.6 52.8 114.7 51.7 113.8 50.5C113.8 50.4 113.7 50.4 113.7 50.3C113.6 50.2 113.5 50.1 113.5 50C113.3 49.8 113.1 49.5 112.9 49.3C112.5 48.8 112.2 48.4 111.8 47.9C111.3 47.4 110.8 46.8 110.5 46.1C110.2 45.5 109.8 44.9 109.3 44.4C109.2 44.3 109.1 44.2 108.9 44C108.8 43.9 108.7 43.7 108.6 43.6C108.6 43.5 108.6 43.4 108.7 43.4C108.8 43.4 109 43.4 109.1 43.4C109.8 43.4 110.5 43.5 111.2 43.5C111.4 43.5 111.7 43.5 111.9 43.6C112 43.6 112.1 43.6 112.1 43.7C112.2 43.8 112.3 43.9 112.4 44.1C112.6 44.3 112.7 44.5 112.8 44.7C113 45 113.3 45.3 113.5 45.6C113.5 45.6 113.5 45.6 113.6 45.7C113.8 45.9 113.9 46.2 114.1 46.4C114.2 46.5 114.3 46.6 114.4 46.7C114.8 47 115 47.5 115.3 47.9C115.8 48.5 116.1 49.3 116.7 49.9C117 50.2 117.3 50.6 117.6 51C117.7 51.1 117.8 51.1 117.8 51.1L117.9 51.1C118 51.1 118 51 118.1 51C118.7 50.4 119.2 49.8 119.6 49C120 48.2 120.6 47.6 121 46.9C121.1 46.8 121.1 46.7 121.2 46.7L121.2 46.7C121.3 46.5 121.5 46.3 121.6 46.1C121.7 46 121.8 45.9 121.9 45.7C122 45.5 122.1 45.3 122.3 45.1C122.7 44.6 123 44 123.4 43.5C123.5 43.4 123.5 43.4 123.6 43.4C123.7 43.4 123.8 43.3 124 43.3C124.1 43.3 124.3 43.3 124.4 43.3C124.5 43.3 124.6 43.3 124.8 43.3C125 43.3 125.1 43.3 125.3 43.3C125.5 43.3 125.8 43.3 126 43.3C126.2 43.3 126.4 43.3 126.7 43.4C126.8 43.4 126.9 43.5 126.9 43.7C126.9 43.9 126.8 44 126.7 44.2C126.3 44.8 125.8 45.3 125.4 46C125.3 46.1 125.3 46.2 125.2 46.3C124.4 47.4 123.7 48.5 122.9 49.6C122.6 50 122.3 50.5 121.9 50.9C121.9 50.9 121.8 51 121.8 51.1C121.7 51.2 121.7 51.3 121.6 51.4C121.4 51.6 121.2 51.8 121.1 52C121 52.2 120.9 52.3 120.7 52.5C120.6 52.6 120.6 52.7 120.5 52.8C120.3 53 120.2 53.3 120 53.5C119.9 53.7 119.7 54 119.5 54.2C119.4 54.4 119.3 54.6 119.2 54.8C119.2 54.9 119.2 55 119.2 55.2C119.2 56 119.1 56.8 119.1 57.6C119.1 58 119.1 58.5 119.1 58.9C119.1 59.2 119.1 59.5 119.1 59.8C119.1 60.3 119.1 60.8 119.1 61.3C119.1 61.7 119.1 62.2 119.1 62.6L119.1 62.7C119.1 62.9 119.1 62.9 118.9 62.9C118.5 62.8 118.1 62.8 117.7 62.8Z" />
		<path id="Layer" fill-rule="evenodd" className="shp0" d="M85.2 17.7C85.1 17.8 85.1 17.8 85 17.9C84.7 18.1 84.4 18.4 84.1 18.6C83.9 18.7 83.7 18.9 83.5 19C82.6 19.6 81.8 20.2 81 21C80.7 21.3 80.3 21.7 79.8 21.9C79.4 22.1 79.1 22.3 78.8 22.6C78.4 22.8 78.1 23.1 77.7 23.4C77.3 23.8 76.8 24 76.4 24.3C75.9 24.5 75.5 24.9 75 25.2C74.9 25.2 74.9 25.3 74.8 25.3C74.5 25.6 74.1 25.9 73.7 26.1C73.5 26.2 73.3 26.4 73.1 26.6C72.4 27.1 71.8 27.6 71.1 28.1C70.8 28.4 70.4 28.7 70 29C69.6 29.4 69.1 29.7 68.6 30.1C68.5 30.2 68.4 30.3 68.3 30.3C68.1 30.3 68 30.4 67.9 30.6C67.9 30.7 67.8 30.7 67.7 30.8C67.6 30.9 67.5 31 67.4 31.1C67.2 31.3 67 31.4 66.8 31.6C66.4 31.8 66 32.1 65.7 32.4C65.6 32.5 65.4 32.6 65.3 32.7C65 32.9 64.8 33.1 64.5 33.3C64.1 33.6 63.7 33.9 63.3 34.2C63.1 34.3 62.9 34.4 62.7 34.5C62.5 34.5 62.4 34.4 62.2 34.3C62 34.2 61.9 34.1 61.7 34C61.2 33.6 60.6 33.3 60 33C59.8 32.9 59.5 32.8 59.3 32.6C58.8 32.2 58.2 31.8 57.6 31.4C56.5 30.6 55.4 29.7 54.3 28.9C53.9 28.6 53.5 28.3 53.1 28C52.5 27.5 51.9 27 51.3 26.5C50.9 26.1 50.5 25.7 50 25.4C49.5 25.1 49.1 24.7 48.6 24.3C48.2 24 47.8 23.6 47.4 23.3C47.3 23.2 47.1 23.1 47 23C46.5 22.7 46.1 22.4 45.6 22C45.3 21.8 45 21.5 44.7 21.3C44.6 21.2 44.4 21 44.2 20.9C43.9 20.6 43.6 20.3 43.2 20.1C42.8 19.9 42.5 19.5 42.1 19.2C41.8 19 41.4 18.8 41.1 18.5C40.9 18.4 40.8 18.3 40.6 18.1C40.5 18 40.4 17.9 40.2 17.8C40.1 17.8 40 17.6 40.1 17.5C40.1 17.4 40.2 17.3 40.3 17.2C40.6 17 40.9 16.7 41.2 16.5C41.4 16.4 41.6 16.3 41.8 16.1C42.7 15.5 43.6 14.9 44.4 14.1C44.8 13.7 45.2 13.4 45.6 13.2C46 13 46.4 12.7 46.7 12.4C47.1 12.1 47.4 11.9 47.8 11.6C48.1 11.4 48.3 11.3 48.5 11.1C48.8 11 49 10.8 49.2 10.7C49.7 10.4 50 10.1 50.5 9.8C50.6 9.7 50.6 9.7 50.7 9.6C51 9.3 51.3 9 51.7 8.8C52 8.7 52.2 8.5 52.4 8.3C53.1 7.8 53.7 7.3 54.4 6.8C54.8 6.5 55.2 6.2 55.6 5.9C56.1 5.6 56.5 5.2 57 4.9C57.1 4.8 57.2 4.7 57.3 4.7C57.5 4.6 57.7 4.5 57.8 4.3L57.9 4.2L58 4.1C58.5 3.6 59 3.3 59.5 2.9C59.9 2.5 60.4 2.2 60.8 1.9C61.2 1.7 61.5 1.4 61.8 1.2C62.1 1 62.4 0.8 62.7 0.7C62.9 0.6 63 0.6 63.2 0.7C63.4 0.8 63.6 1 63.8 1.1C64.3 1.5 64.9 1.8 65.5 2.1C65.7 2.2 66 2.4 66.2 2.5C66.7 2.8 67.2 3.1 67.7 3.5C68.9 4.4 70.1 5.3 71.3 6.2C71.5 6.3 71.8 6.5 72 6.7C72.5 7 73 7.4 73.5 7.8C73.9 8.2 74.3 8.5 74.7 8.9C74.8 9 75 9.2 75.2 9.3C76 9.8 76.8 10.5 77.6 11.1C78.2 11.6 78.9 12.1 79.6 12.6C80.1 13 80.5 13.3 81 13.7C81.6 14.2 82.1 14.6 82.7 15C83 15.1 83.2 15.3 83.4 15.5C83.8 15.9 84.2 16.2 84.7 16.5C84.8 16.6 84.9 16.7 85 16.8C85.2 16.9 85.3 17.1 85.5 17.2C85.6 17.3 85.6 17.4 85.2 17.7ZM73.2 21.8C73.2 21.7 73.2 21.6 73.2 21.5C73.2 21.4 73.2 21.4 73.2 21.3C73.2 21.2 73.2 21.1 73 21C72.8 20.9 72.6 20.8 72.4 20.6C72.1 20.3 71.7 20.1 71.3 20.1C71.2 20.1 71 20.1 70.9 20.2C70.7 20.3 70.5 20.4 70.3 20.5C69.9 20.7 69.6 20.8 69.2 21C68.8 21.1 68.5 21.3 68.1 21.5C67.7 21.7 67.3 21.9 66.9 22.1C66.6 22.2 66.3 22.4 66 22.5C65.9 22.6 65.7 22.7 65.6 22.6C65.5 22.6 65.6 22.4 65.6 22.4C65.7 22.2 65.8 22 65.9 21.8C66.5 20.7 66.8 19.4 66.9 18.1C67 17.2 67 16.3 67 15.4C67.1 14.1 66.9 12.7 66.9 11.4C66.9 11 66.8 10.6 66.8 10.2C66.8 9.9 66.7 9.5 66.7 9.2C66.6 8.9 66.6 8.7 66.6 8.4C66.5 7.7 66.4 7.1 66.3 6.5C66.2 6.3 66.2 6.1 66.1 5.9C66.1 5.8 66 5.6 65.9 5.6C65.7 5.5 65.4 5.4 65.2 5.4C65.1 5.4 65 5.5 64.9 5.6C64.9 5.7 64.8 5.8 64.8 5.9C64.6 6.6 64.4 7.3 64.1 7.9C63.9 8.3 63.8 8.7 63.6 9.1C63.3 9.6 63.1 10.2 62.8 10.7C62.7 10.8 62.6 11 62.6 11.2C62.5 11.4 62.5 11.5 62.4 11.6C62.2 11.9 62.1 12.1 62 12.4C61.9 12.6 61.9 12.7 61.8 12.8C61.8 12.9 61.7 13.1 61.6 13.2C61.6 13.3 61.5 13.5 61.4 13.7C61.1 14.3 60.7 15 60.4 15.6C60.1 16.1 59.9 16.7 59.5 17.2C59.2 18 58.7 18.7 58.3 19.4C58.2 19.6 58.1 19.8 58 20C57.8 20.3 57.7 20.6 57.5 20.9C57.4 21.2 57.1 21.3 57 21.5C56.7 22 56.3 22.6 55.9 23.1C55.9 23.1 55.8 23.2 55.8 23.3C55.6 23.7 55.4 24 55.1 24.3C54.9 24.6 54.6 24.9 54.4 25.2C54.3 25.3 54.3 25.4 54.2 25.6C54.1 25.9 54.2 26.1 54.4 26.3C54.5 26.4 54.7 26.5 54.9 26.6C55.1 26.6 55.3 26.6 55.5 26.6C55.8 26.6 56 26.4 56.1 26.2C56.4 25.9 56.6 25.5 56.8 25.2C56.8 25 56.9 24.9 57 24.8C57.1 24.7 57.1 24.6 57.2 24.5C57.4 24.4 57.8 24.6 58 24.7C58.2 24.8 58.4 24.9 58.7 25C58.9 25.1 59.2 25.1 59.5 25.2C59.9 25.3 60.3 25.3 60.7 25.4C62 25.6 63.3 25.5 64.6 25.2C65.1 25.1 65.6 25 66 24.9C66.5 24.8 67.1 24.6 67.6 24.4C68 24.3 68.3 24.1 68.7 24C69.1 23.8 69.6 23.7 70 23.5C70.2 23.5 70.4 23.4 70.6 23.2C70.8 23 71.1 23 71.3 22.9C71.8 22.6 72.3 22.4 72.8 22.2C72.9 22.2 73 22.2 73.1 22.1C73.2 22 73.2 22 73.2 21.9C73.2 21.8 73.2 21.8 73.2 21.8ZM65 13C65 13.2 65 13.5 65 13.7C65 14.2 65 14.6 65.1 15.1C65.1 15.5 65.2 15.9 65.2 16.3C65.3 17.3 65.2 18.2 65 19.2C64.8 19.9 64.6 20.6 64.3 21.3C64.2 21.4 64.2 21.6 64.2 21.7C64.1 22 63.9 22.2 63.7 22.3C63.1 22.7 62.6 23 61.9 23.2C61.5 23.3 61.1 23.3 60.7 23.3C60.3 23.3 59.9 23.3 59.5 23.2C59.3 23.2 59.1 23.1 58.8 23.1C58.7 23.1 58.6 23 58.5 23C58.3 22.9 58.5 22.7 58.6 22.6C58.9 22 59.3 21.4 59.8 20.9C60.5 20.2 61 19.4 61.4 18.5C61.8 17.9 62.1 17.2 62.5 16.6C62.8 16.1 63 15.7 63.3 15.2C63.6 14.6 64 14 64.3 13.5C64.4 13.3 64.6 13 64.7 12.7C64.8 12.8 64.9 12.7 65 12.7C65.1 12.8 65 13 65 13Z" />
	</g>
</svg>